<svg width="99" height="100" viewBox="0 0 99 100" fill="none" xmlns="http://www.w3.org/2000/svg">
<g id="_x34_">
<g id="Group">
<g id="_x31_4_2_">
<path id="Vector" d="M39.6501 43.6529C41.398 43.2826 42.7756 42.3049 43.7532 40.7644C44.1828 39.9793 44.4346 39.1647 44.5679 38.3352C44.1087 35.9948 43.1014 34.1284 41.6794 33.7728C37.6948 32.7804 34.3472 33.995 34.3472 33.995C34.3472 33.995 34.7619 38.8684 36.5098 43.3418C37.5467 43.7121 38.7021 43.8158 39.6501 43.6529Z" fill="#E7B088"/>
<path id="Vector_2" d="M34.3621 33.9802L39.976 38.7795C39.976 38.7795 41.8869 43.4603 41.1759 47.5486C44.8642 48.8373 46.4788 40.8236 46.4788 40.8236C46.4788 40.8236 42.7312 34.0394 42.4349 34.0394C42.1535 34.0394 35.6508 29.4179 34.3621 33.9802Z" fill="#E7B088"/>
<path id="Vector_3" d="M44.5679 38.335C44.4346 39.1645 44.1828 39.9791 43.7532 40.7642C42.7756 42.3195 41.398 43.2824 39.6501 43.6527C38.6873 43.8156 37.5467 43.7119 36.5247 43.3416C37.4727 45.756 38.8058 48.0669 40.6722 49.4C44.3902 48.3039 45.3826 42.5566 44.5679 38.335Z" fill="#DDA783"/>
<path id="Vector_4" d="M40.5092 31.8768C40.2722 31.862 39.9908 31.8324 39.6797 31.7879C38.7021 31.6694 37.4875 31.5065 36.4802 31.3583C35.3544 31.1954 34.4805 31.0473 34.4805 31.0473C34.4805 31.0473 32.54 30.7362 33.1029 32.9877C33.6806 33.7876 34.9841 34.2172 36.2136 34.4394C37.3393 34.6468 38.4058 34.6764 38.7762 34.6912C38.865 34.6912 38.9243 34.6912 38.9243 34.6912C38.9243 34.6912 39.7982 35.8022 41.398 37.9055C41.9016 36.4687 42.346 35.0319 42.5978 33.6099C42.0053 33.0915 41.3091 32.5286 40.5092 31.8768Z" fill="#F2C4A5"/>
<g id="Group_2">
<g id="Group_3">
<path id="Vector_5" d="M45.5752 29.9065L34.6435 39.6532C33.0585 38.4978 31.2958 37.0906 29.4591 35.402C27.9778 34.0541 26.4373 32.4987 24.9116 30.7805C21.7121 27.1514 19.3865 23.626 17.7126 20.6782L27.4446 11.998L32.94 17.4343L45.5752 29.9065Z" fill="#31353E"/>
<path id="Vector_6" d="M45.5752 29.9064L34.6435 39.6531C33.0585 38.4977 31.2958 37.0905 29.4591 35.4018L24.5413 14.5753L24.3635 13.731L25.1042 14.0717L32.9252 17.4193L45.5752 29.9064Z" fill="#252930"/>
</g>
<path id="Vector_7" d="M21.7566 0L41.1908 15.3903L54.1814 38.3647L26.7781 25.7443L21.7566 0Z" fill="#1F232D"/>
<path id="Vector_8" d="M21.7566 0L41.1908 15.3903L54.1814 38.3647L29 23.3299L21.7566 0Z" fill="#383F4B"/>
<path id="Vector_9" d="M39.3243 18.2049C38.8355 18.6493 37.6949 18.1753 36.7914 17.1532C35.8878 16.1311 35.5471 14.9461 36.0359 14.5165C36.5247 14.0722 37.6653 14.5462 38.5689 15.5683C39.4872 16.5755 39.8131 17.7605 39.3243 18.2049Z" fill="#1D1F25"/>
<g id="Group_4">
<g id="Group_5">
<path id="Vector_10" d="M50.4485 40.8531C50.4633 40.8679 50.4633 40.8679 50.4781 40.8827C50.804 41.2086 51.1002 41.1493 51.1595 40.7346L51.2335 40.2013C51.5446 38.1275 52.1667 36.1426 50.4781 33.4912L38.3614 16.1456C38.0651 15.716 37.3837 15.6568 37.2652 16.0271C37.1467 16.3974 37.1319 16.8714 37.4282 17.301L49.5745 34.6318C50.3892 35.9205 50.3596 36.7648 50.0485 39.0163L49.9745 39.5644C49.9448 39.9495 50.1522 40.5272 50.4485 40.8531Z" fill="#EFCB0E"/>
</g>
<g id="Group_6">
<path id="Vector_11" d="M53.0109 45.6667C52.9664 48.7478 50.8778 49.5773 50.8778 49.5773C50.8778 49.5773 50.8482 49.5328 50.8186 49.4588L50.8482 39.9639C51.9888 40.8971 53.0553 42.6005 53.0109 45.6667Z" fill="#EFCB0E"/>
<path id="Vector_12" d="M50.7002 39.8456C50.7446 39.8752 50.789 39.9196 50.8335 39.9493L50.8038 49.4441C50.4631 48.7628 48.7893 45.2226 48.7745 42.4082C48.7449 39.1938 49.5151 38.942 50.7002 39.8456Z" fill="#E2B90E"/>
</g>
</g>
</g>
<path id="Vector_13" d="M46.8639 56.9399C46.8935 53.1479 48.6711 47.8005 48.597 45.2676C47.6342 43.0161 45.4419 36.0986 45.4419 36.0986C45.4419 36.0986 44.4939 35.195 42.5979 33.5952C42.3461 35.032 41.9165 36.4689 41.3981 37.8909C41.561 38.1131 41.7239 38.3205 41.9017 38.5575C42.3461 44.0085 41.7684 46.4674 40.1982 46.9562C40.1686 46.9562 40.1538 46.9562 40.1242 46.9414C37.369 46.497 36.895 41.5644 36.2729 39.4907C35.9174 38.2908 35.5767 36.7503 34.1251 36.5726C32.9697 36.4393 31.5328 37.2095 31.7847 38.5278C31.9772 39.5647 33.6955 44.2159 34.1991 48.319C34.1991 48.319 34.1991 48.319 34.1991 48.3338C34.1991 48.3486 34.1991 48.3634 34.1991 48.3782C34.1991 48.4079 34.1991 48.4374 34.2139 48.4819C34.3028 49.2521 34.3472 50.0076 34.3324 50.7038C34.1991 55.1772 37.9912 59.6358 38.7614 60.6134C39.5317 61.5911 38.9243 75.4409 38.9243 75.4409L39.4428 75.4113L50.4189 74.8336C50.4338 74.8632 47.5009 62.1984 46.8639 56.9399Z" fill="#F2C4A5"/>
<path id="Vector_14" d="M32.2437 38.1722L32.614 39.7868C32.777 40.483 33.3991 40.9866 34.1101 40.9126C34.9693 40.8385 35.5321 40.0238 35.3396 39.2091L34.9544 37.5353C34.8804 37.1798 34.5249 36.9576 34.1694 37.0465L32.7325 37.3723C32.377 37.476 32.1548 37.8315 32.2437 38.1722Z" fill="#EAD4C1"/>
<path id="Vector_15" d="M39.4576 75.4406L38.9392 75.4702C38.9392 75.4702 39.5465 61.6204 38.7762 60.6428C38.006 59.6651 34.2139 55.2065 34.3472 50.7331C34.3621 50.0369 34.3176 49.2815 34.2288 48.5112C34.3473 49.4296 34.9842 53.9771 35.9174 55.3547C36.9543 56.8804 38.243 58.9689 38.8207 59.754C39.3984 60.5391 39.7094 62.6128 39.7094 67.4121C39.7242 70.6709 39.5613 73.7816 39.4576 75.4406Z" fill="#E7B088"/>
</g>
<g id="Group_7">
<path id="Vector_16" d="M47.4268 59.7983H37.4431V99.8369H47.4268V59.7983Z" fill="#DF5212"/>
<path id="Vector_17" d="M51.6928 59.7983H47.4268V99.8369H51.6928V59.7983Z" fill="#F66A2A"/>
</g>
</g>
<g id="Group_8">
<g id="_x31_0_3_">
<path id="Vector_18" d="M12.3061 96.6373C12.3061 96.6373 16.9572 99.0518 22.1564 98.163C22.3934 98.1186 22.6305 98.0742 22.8526 98.0297C23.0156 98.0001 23.1637 97.9557 23.3267 97.9112C23.4452 97.8816 23.4155 83.3949 23.7414 82.4913C24.1858 81.2322 25.2227 80.299 25.6226 79.0251C25.9929 77.8401 26.1559 76.6699 26.141 75.4109C26.1262 73.5889 25.8448 71.7669 25.43 70.0042C25.4004 69.8857 25.3856 69.7821 25.3856 69.6636C25.3115 68.2712 26.6002 66.4492 27.2816 65.3086C27.9038 64.2569 28.7777 63.4423 29.4443 62.4498C29.5331 62.3165 29.6368 62.1684 29.7109 62.0202C30.096 61.3685 30.4367 60.1094 30.0368 59.3836C30.022 59.354 29.9923 59.3243 29.9331 59.2947C29.5628 59.0133 28.2889 58.4356 28.1259 58.5689C28.0815 58.5985 26.6891 59.7835 26.6891 59.7835L25.7411 60.4945L23.2378 58.2134C23.2378 58.2134 20.2752 59.2799 17.846 60.1835C16.261 60.776 14.8983 61.2944 14.7946 61.3685C13.3281 62.509 12.5727 64.8346 12.232 65.8271C11.4321 68.1971 11.1359 68.8785 11.4914 70.1968C11.7876 71.2929 12.232 72.078 12.4986 73.1741C13.0319 75.3812 13.5059 77.6031 14.1132 79.7806C14.128 79.825 14.3354 80.462 14.3502 80.4471C14.5724 80.2398 12.3061 96.6373 12.3061 96.6373Z" fill="#E7B088"/>
<path id="Vector_19" d="M12.3061 96.6373C12.3061 96.6373 16.9572 99.0518 22.1564 98.163C22.3934 98.1186 22.6304 98.0742 22.8526 98.0297C22.8675 97.9853 22.9119 97.926 22.8971 97.8816C22.586 95.9559 22.6749 82.9949 22.7786 82.3283C22.8823 81.6766 23.2674 81.247 23.7266 80.8175C24.1561 80.4175 24.408 79.8695 24.6598 79.3362C25.193 78.1512 25.5189 76.8773 25.6078 75.5886C25.7411 73.6185 25.1782 71.7818 24.8227 69.8857C24.5561 68.523 25.8152 66.8936 26.5558 65.8715C27.4297 64.6569 28.2889 63.4422 29.1628 62.2276C29.5183 61.7388 29.8738 61.2203 29.9923 60.6278C30.096 60.0502 29.9035 59.5021 29.4739 59.1021C29.2813 58.9244 28.437 58.3615 28.1704 58.5689C28.1259 58.5985 26.7335 59.7835 26.7335 59.7835L25.7855 60.4945L23.2822 58.2134C23.2822 58.2134 15.1204 61.1611 14.839 61.3685C13.3726 62.509 12.6171 64.8346 12.2764 65.8271C11.4765 68.1971 11.1803 68.8785 11.5358 70.1968C11.832 71.2929 12.2764 72.078 12.5431 73.1741C13.0763 75.3812 13.5503 77.6031 14.1576 79.7806C14.1724 79.825 14.3798 80.462 14.3946 80.4471C14.5724 80.2398 12.3061 96.6373 12.3061 96.6373Z" fill="#F2C4A5"/>
<path id="Vector_20" d="M15.2092 76.981C15.1203 76.744 15.0759 76.507 15.0462 76.2404C14.9425 74.6999 15.2388 73.0261 15.5499 71.5152C15.7424 70.5968 16.1276 69.6932 16.3053 68.7897C16.4831 67.8861 16.1128 67.9453 15.8461 67.1307C15.6388 66.4789 16.335 65.5901 16.6164 64.9976C16.8238 64.5533 17.6533 63.3386 17.5496 62.835C17.5644 62.8794 18.3198 66.7159 18.3198 66.7159C19.1049 66.2567 19.89 65.8123 20.675 65.3531C21.4601 64.8939 22.2452 64.4495 23.0302 63.9903C23.6672 63.62 24.0227 62.9239 24.6004 62.4499C25.1781 61.9759 25.8447 61.5907 26.5408 61.3389C26.7186 61.2797 26.9111 61.2204 27.1037 61.2352C27.2963 61.25 27.4889 61.3389 27.5777 61.5167C27.6962 61.7388 27.5925 62.0203 27.4 62.198C27.2222 62.3758 26.9704 62.4646 26.7334 62.5535C25.578 63.0423 24.6152 63.9163 23.9782 64.9976C23.1487 66.4196 22.9266 68.3008 23.6376 69.7969C24.1856 70.9523 24.5559 72.1966 24.7041 73.4705C24.9115 75.2332 24.8374 77.4106 23.7116 78.8771C22.9117 79.9288 21.5786 80.0769 20.3492 80.0917C19.2678 80.1065 18.2013 79.751 17.2681 79.1881C16.409 78.6252 15.5647 77.9439 15.2092 76.981Z" fill="#E7B088"/>
<path id="Vector_21" d="M18.5866 66.9676C20.8826 64.7902 26.6595 63.146 29.4295 62.4498C29.5183 62.3165 29.622 62.1684 29.6961 62.0202C30.0812 61.3685 30.4219 60.1094 30.022 59.3836C30.0071 59.354 29.9775 59.3243 29.9183 59.2947C29.548 59.0133 28.2741 58.4356 28.1111 58.5689C28.0667 58.5985 26.6743 59.7835 26.6743 59.7835L25.7263 60.4945L23.223 58.2134C23.223 58.2134 20.2604 59.2799 17.8312 60.1835C17.1942 63.9903 16.661 68.7896 18.5866 66.9676Z" fill="#F4E7E1"/>
<g id="Group_9">
<g id="Group_10">
<path id="Vector_22" d="M37.2208 54.5547L29.7404 67.9897C27.7704 67.3824 25.5337 66.5973 23.1192 65.5604C21.1788 64.7309 19.1346 63.7237 17.0164 62.5387C12.6022 60.0354 9.07684 57.3395 6.39575 54.9843L13.0614 43.0156L20.3789 46.5114L37.2208 54.5547Z" fill="#31353E"/>
<path id="Vector_23" d="M37.2209 54.5546L29.7405 67.9896C27.7704 67.3823 25.5337 66.5972 23.1193 65.5603L11.0766 46.5854L10.6174 45.8003L11.4766 45.8744L20.3938 46.4965L37.2209 54.5546Z" fill="#252930"/>
</g>
<path id="Vector_24" d="M3.28516 33.0913L27.8741 41.6678L48.6858 59.9762L17.1498 56.8952L3.28516 33.0913Z" fill="#1F232D"/>
<path id="Vector_25" d="M3.28516 33.0913L27.8741 41.6678L48.6858 59.9762L18.5125 53.7401L3.28516 33.0913Z" fill="#383F4B"/>
<path id="Vector_26" d="M27 45.1043C26.6593 45.7116 25.3706 45.6376 24.1264 44.9414C22.8673 44.2452 22.1267 43.1935 22.4674 42.5862C22.8081 41.9789 24.0968 42.0529 25.341 42.7491C26.5853 43.4453 27.3259 44.497 27 45.1043Z" fill="#1D1F25"/>
<g id="Group_11">
<path id="Vector_27" d="M5.07738 42.8823C5.06257 42.8823 5.06256 42.8675 5.04775 42.8675C4.69225 42.6453 4.58856 42.1861 4.79594 41.8306L5.07738 41.3714C6.17351 39.5791 7.19558 37.8905 9.5656 38.4237L25.578 43.2526C25.978 43.3711 26.2002 43.7859 26.0817 44.1858C25.9632 44.5858 25.5336 44.8079 25.1485 44.6894L9.18048 39.8753C8.0251 39.6235 7.53627 40.216 6.36607 42.1565L6.08465 42.6305C5.87727 42.9564 5.43288 43.0749 5.07738 42.8823Z" fill="#EFCB0E"/>
</g>
<g id="Group_12">
<path id="Vector_28" d="M1.21136 44.6599C-0.447656 47.6373 0.322614 51.2367 0.322614 51.2367C0.322614 51.2367 0.36704 51.2219 0.42629 51.1923L5.4774 42.127C4.32202 41.5641 2.81112 41.8011 1.21136 44.6599Z" fill="#EFCB0E"/>
<path id="Vector_29" d="M5.61069 42.2009C5.56625 42.1712 5.52182 42.1564 5.47738 42.1416L0.42627 51.207C1.00396 50.9848 3.93687 49.7109 5.43294 47.0298C7.09196 44.0376 6.76607 42.8526 5.61069 42.2009Z" fill="#E2B90E"/>
</g>
</g>
<path id="Vector_30" d="M15.4464 72.0927C14.3206 73.7517 14.528 75.6477 15.0464 77.4993C15.2686 78.3288 15.6093 79.1435 16.2018 79.7656C17.0461 80.6396 18.8681 80.3285 19.9642 80.7877C22.7046 81.9283 24.2451 78.4029 24.2599 76.181C24.2747 74.8626 23.9192 73.5739 23.5044 72.3297C22.986 70.8336 22.5713 69.0709 22.7934 67.486C22.9268 66.5676 23.0453 65.6492 23.1786 64.7308C23.4008 63.3088 23.5341 61.8127 23.8896 60.4055C24.2451 59.0132 22.8082 57.4578 21.3418 57.917C19.8013 58.4058 19.4458 60.6426 18.9866 61.9461C18.5274 63.2348 18.083 64.5382 17.6386 65.8417C17.6386 65.8566 16.1574 71.041 15.4464 72.0927Z" fill="#F2C4A5"/>
<path id="Vector_31" d="M23.4599 59.8428C23.371 60.1687 23.2525 60.6278 23.1488 60.9833C22.9711 61.6499 22.2601 62.1091 21.475 62.0054C20.4974 61.8721 19.8604 60.9981 20.0826 60.1983L20.4085 58.9984C20.4974 58.6874 20.8084 58.48 21.1639 58.5096C21.4306 58.5245 21.7564 58.5689 22.0971 58.6578C22.4823 58.7615 22.7933 58.8948 23.0599 59.0281C23.371 59.2058 23.534 59.5317 23.4599 59.8428Z" fill="#EAD4C1"/>
</g>
<g id="Group_13">
<path id="Vector_32" d="M21.3121 84.0317H11.3284V99.9997H21.3121V84.0317Z" fill="#16405E"/>
<path id="Vector_33" d="M25.578 84.0317H21.312V99.9997H25.578V84.0317Z" fill="#1C4D6B"/>
</g>
</g>
<g id="Group_14">
<g id="_x31_3_1_">
<g id="Group_15">
<path id="Vector_34" d="M72.9488 56.1097C72.9488 56.1097 69.7788 53.4731 69.6307 52.214C69.5418 51.4882 69.9418 50.9401 70.2973 50.6142C70.5491 50.3772 70.949 50.3772 71.2157 50.5994L75.2743 54.1693L79.9403 53.3694L82.2511 58.8648L78.0443 66.286C78.0443 66.286 73.2006 64.5381 73.1413 64.2863C73.0821 64.0345 74.2967 57.354 74.2967 57.354L72.9488 56.1097Z" fill="#E7B088"/>
<path id="Vector_35" d="M72.7711 49.4737C72.7711 49.4737 71.1417 49.4293 71.7194 51.5179C72.2971 53.6064 78.1629 57.4577 78.1629 57.4577C78.1629 57.4577 80.4144 55.1914 80.4885 55.0136C80.5329 54.8211 72.7711 49.4737 72.7711 49.4737Z" fill="#E7B088"/>
<path id="Vector_36" d="M85.1693 58.7613L83.0066 68.5821L75.0671 72.2556C74.0598 72.7889 72.7119 73.8405 72.7859 74.9811L73.7487 89.0531L63.691 88.8013C63.4095 88.8013 63.1577 73.0703 63.1577 73.0703C63.1577 73.0703 62.7874 71.2928 63.2614 69.2783C63.2762 69.2338 63.2762 69.1894 63.291 69.1449C63.3058 69.1005 63.3207 69.0561 63.3207 69.0116C63.3355 68.9672 63.3503 68.9228 63.3651 68.8783C63.3947 68.7895 63.4243 68.7006 63.454 68.6117C63.4688 68.5673 63.4836 68.5228 63.4984 68.4784C63.528 68.3895 63.5576 68.3006 63.6021 68.1969C63.6169 68.1525 63.6317 68.108 63.6613 68.0636C63.691 67.9895 63.7206 67.9155 63.765 67.8266C63.7946 67.7673 63.8243 67.7081 63.8539 67.6489C63.8983 67.56 63.9428 67.4711 63.9872 67.3971C64.1353 67.1304 64.3131 66.8638 64.5056 66.5972C64.6686 66.3898 64.8315 66.1824 65.0241 65.9898C65.0685 65.9454 65.113 65.8862 65.1722 65.8417C65.424 65.6047 65.6907 65.3825 66.0017 65.1603C68.9791 62.9829 70.0159 61.6498 70.0159 61.6498C70.9491 59.8278 72.0008 58.0799 72.8896 56.2283C73.3192 55.3248 73.6599 54.4064 73.9857 53.4732C74.2079 52.8363 74.4745 52.1845 75.2744 52.2141C76.5928 52.2438 77.2297 53.014 77.0223 53.8583C76.815 54.7026 74.9486 61.1461 74.9337 62.0793C74.9337 62.109 74.9337 62.1534 74.9337 62.1978C74.9337 62.2274 74.9337 62.2719 74.9337 62.3015C74.9337 62.3163 74.9337 62.3311 74.9337 62.346C74.9337 62.3756 74.9337 62.42 74.9485 62.4497C74.9485 62.4941 74.9634 62.5385 74.9634 62.583C74.9782 62.6274 74.9782 62.6718 74.993 62.7311C75.0078 62.7755 75.0078 62.82 75.0226 62.8644C75.0226 62.8644 75.0226 62.8644 75.0226 62.8792C75.0374 62.9236 75.0522 62.9681 75.0671 63.0273C75.0819 63.0718 75.0967 63.1162 75.1115 63.1606V63.1755C75.4077 64.0198 76.0447 64.7752 77.0371 64.1383C78.0888 63.4865 80.2811 60.7758 81.1698 59.2057C81.4957 58.6132 81.6439 57.6059 81.2735 57.043C80.1033 55.2655 77.7481 51.2661 77.7037 49.3553C77.7037 49.1331 77.7778 48.9257 77.9259 48.7628C78.1037 48.5702 78.2518 48.4221 78.3851 48.2888L78.3999 48.274C78.474 48.1999 78.5628 48.1555 78.6665 48.1258C78.6813 48.111 78.6961 48.111 78.7258 48.111C79.0665 48.0073 79.4664 48.1406 79.6738 48.4813L80.9329 50.5699L81.2883 51.1624L81.3032 51.1921L84.9323 56.5394L85.1693 58.7613Z" fill="#F2C4A5"/>
<path id="Vector_37" d="M81.0068 50.718C80.8142 50.8217 80.6217 50.8958 80.4143 50.881C80.3403 50.8366 80.2366 50.7773 80.1032 50.7032C79.0515 50.007 78.7553 48.585 78.696 48.0666C79.0367 47.9629 79.4367 48.0962 79.6441 48.4369L80.9031 50.5255C80.9328 50.5995 80.9624 50.6588 81.0068 50.718Z" fill="#EAD4C1"/>
</g>
<g id="Group_16">
<g id="Group_17">
<path id="Vector_38" d="M86.7543 38.9424L89.1243 53.8143C87.2431 54.5401 85.036 55.2955 82.5623 55.9473C80.5626 56.4805 78.3851 56.9398 76.0299 57.3101C71.1121 58.0507 66.772 58.1099 63.2763 57.9322L61.1729 44.6749L68.9199 42.9418L86.7543 38.9424Z" fill="#31353E"/>
<path id="Vector_39" d="M86.7542 38.9424L89.1242 53.8143C87.243 54.5401 85.0359 55.2955 82.5622 55.9473L61.8097 48.6299L60.9802 48.304L61.6912 47.8448L68.9346 42.9418L86.7542 38.9424Z" fill="#252930"/>
</g>
<path id="Vector_40" d="M47.634 42.9417L71.749 34.6763L98.8561 36.1871L72.7118 52.881L47.634 42.9417Z" fill="#1F232D"/>
<path id="Vector_41" d="M47.634 42.9417L71.749 34.6763L98.8561 36.1871L71.8527 49.6222L47.634 42.9417Z" fill="#383F4B"/>
<path id="Vector_42" d="M73.1563 37.8461C73.26 38.5126 72.2231 39.2385 70.8455 39.4606C69.4531 39.6828 68.2533 39.3125 68.1348 38.646C68.0311 37.9794 69.068 37.2536 70.4456 37.0314C71.838 36.8092 73.0526 37.1795 73.1563 37.8461Z" fill="#1D1F25"/>
<g id="Group_18">
<g id="Group_19">
<path id="Vector_43" d="M87.3466 49.6515C87.3614 49.6515 87.3762 49.6515 87.3762 49.6515C87.7761 49.696 88.1465 49.3997 88.1909 48.9998L88.2501 48.4665C88.4872 46.4224 88.7242 44.5116 86.5763 43.4747L71.3193 37.5052C70.9342 37.3571 70.5046 37.5496 70.3565 37.92C70.2084 38.3051 70.401 38.7346 70.7713 38.8828L85.969 44.8374C87.0207 45.3411 87.0207 46.0965 86.7689 48.2888L86.7096 48.822C86.68 49.2368 86.9615 49.5923 87.3466 49.6515Z" fill="#EFCB0E"/>
</g>
<g id="Group_20">
<path id="Vector_44" d="M89.2427 53.3691C88.7242 56.6723 85.9543 58.9683 85.9543 58.9683C85.9543 58.9683 85.9246 58.9238 85.895 58.8646L87.4948 48.8364C88.7242 49.1031 89.7463 50.1844 89.2427 53.3691Z" fill="#EFCB0E"/>
<path id="Vector_45" d="M87.3467 48.807C87.3911 48.807 87.4356 48.8219 87.48 48.8367L85.8802 58.8648C85.5692 58.3464 84.0731 55.5912 84.5471 52.6139C85.0952 49.3255 86.058 48.5996 87.3467 48.807Z" fill="#E2B90E"/>
</g>
</g>
</g>
<g id="Group_21">
<path id="Vector_46" d="M77.0224 53.8439C76.815 54.6882 74.9486 61.1317 74.9338 62.0649C74.9338 62.0945 74.9338 62.1389 74.9338 62.1833C74.9338 62.213 74.9338 62.2574 74.9338 62.287C74.9338 62.3018 74.9338 62.3167 74.9338 62.3315C74.9338 62.3611 74.9338 62.4055 74.9486 62.4352C74.9486 62.4796 74.9635 62.524 74.9635 62.5685C74.9783 62.6129 74.9783 62.6574 74.9931 62.7166C75.0079 62.7611 75.0079 62.8055 75.0227 62.8499C75.0227 62.8499 75.0227 62.8499 75.0227 62.8647C75.0375 62.9092 75.0523 62.9536 75.0671 63.0128C75.082 63.0573 75.0968 63.1018 75.1116 63.1462V63.161C72.786 67.1456 68.5644 69.012 64.0021 69.2638C63.7503 69.2786 63.5133 69.2934 63.2615 69.2934C63.2763 69.249 63.2763 69.2046 63.2911 69.1601C63.3059 69.1157 63.3207 69.0712 63.3207 69.0268C63.3356 68.9824 63.3504 68.9379 63.3652 68.8935C63.3948 68.8046 63.4244 68.7157 63.454 68.6268C63.4689 68.5824 63.4837 68.538 63.4985 68.4935C63.5281 68.4047 63.5577 68.3158 63.6022 68.2121C63.617 68.1676 63.6318 68.1232 63.6614 68.0788C63.691 68.0047 63.7207 67.9306 63.7651 67.8418C63.7947 67.7825 63.8244 67.7233 63.854 67.664C63.8984 67.5752 63.9429 67.4863 63.9873 67.4122C64.1354 67.1456 64.3132 66.879 64.5057 66.6123C64.6687 66.405 64.8316 66.1976 65.0242 66.005C65.0686 65.9606 65.1131 65.9013 65.1723 65.8569C65.4241 65.6199 65.6908 65.3977 66.0018 65.1755C68.9792 62.9981 70.016 61.6649 70.016 61.6649C70.9492 59.843 71.8676 57.7988 72.7416 55.9472C73.1711 55.0437 73.4229 54.0809 73.7488 53.1477C73.971 52.5107 74.4746 52.1107 75.2745 52.2293C76.8743 52.4366 77.2298 53.0144 77.0224 53.8439Z" fill="#F2C4A5"/>
<path id="Vector_47" d="M74.3561 52.8812L74.0154 54.2291C73.8524 54.8661 74.1635 55.5475 74.7708 55.7845C75.4966 56.0659 76.2965 55.6364 76.4742 54.9106L76.8298 53.5033C76.9038 53.2071 76.7261 52.896 76.4298 52.822L75.0374 52.4664C74.7412 52.4072 74.4301 52.5849 74.3561 52.8812Z" fill="#EAD4C1"/>
</g>
<path id="Vector_48" d="M64.5057 88.8312L63.7058 88.8164C63.4244 88.8164 63.1726 73.0854 63.1726 73.0854C63.1726 73.0854 62.8023 71.3079 63.2763 69.2934C63.2911 69.2489 63.2911 69.2045 63.3059 69.1601C63.3207 69.1156 63.3355 69.0712 63.3355 69.0268C63.3503 68.9823 63.3652 68.9379 63.38 68.8934C63.4096 68.8045 63.4392 68.7157 63.4688 68.6268C63.4836 68.5824 63.4985 68.5379 63.5133 68.4935C63.5429 68.4046 63.5725 68.3157 63.617 68.212C63.6318 68.1676 63.6466 68.1232 63.6762 68.0787C63.7058 68.0047 63.7355 67.9306 63.7799 67.8417C63.8095 67.7825 63.8392 67.7232 63.8688 67.664C63.9132 67.5751 63.9577 67.4862 64.0021 67.4122C64.1502 67.1455 64.328 66.8789 64.5205 66.6123C64.328 67.3381 63.8244 68.7601 63.691 69.8266C63.454 71.693 63.6762 73.5891 63.8243 76.759C64.1058 83.4839 64.3428 87.0389 64.5057 88.8312Z" fill="#E7B088"/>
</g>
<g id="Group_22">
<path id="Vector_49" d="M72.4749 76.0776H62.4912V100H72.4749V76.0776Z" fill="#14B0BF"/>
<path id="Vector_50" d="M76.7262 76.0776H72.4602V100H76.7262V76.0776Z" fill="#17C5CC"/>
</g>
</g>
</g>
</svg>
