<svg width="128" height="100" viewBox="0 0 128 100" fill="none" xmlns="http://www.w3.org/2000/svg">
<g id="_x31_1">
<g id="Group">
<path id="Vector" d="M11.6843 6.66912V63.4022C11.6843 67.093 14.1327 70.0713 17.1475 70.0713H112.123C115.138 70.0713 117.586 67.093 117.586 63.4022V6.66912C117.586 2.97827 115.138 0 112.123 0H17.1475C14.1327 0 11.6843 2.97827 11.6843 6.66912Z" fill="#6D6E71"/>
<path id="Vector_2" d="M14.8088 10.4332V59.6384C14.8088 63.4937 17.3669 66.6364 20.5461 66.6364H61.5108L17.2024 4.76904C15.7407 6.02978 14.8088 8.09447 14.8088 10.4332Z" fill="#9D9D9E"/>
<path id="Vector_3" d="M108.743 3.43506H20.5277C19.2853 3.43506 18.1342 3.92839 17.1841 4.75061L61.4925 66.618H108.724C111.885 66.618 114.462 63.4935 114.462 59.62V10.4148C114.48 6.5595 111.922 3.43506 108.743 3.43506Z" fill="#A7A9AC"/>
</g>
<g id="Group_2">
<path id="Vector_4" d="M44.756 18.0522H24.1091V43.6689H44.756V18.0522Z" fill="#E4F4FF"/>
<path id="Vector_5" d="M39.8045 20.2998H27.3616V21.8163H39.8045V20.2998Z" fill="#939598"/>
<path id="Vector_6" d="M39.8045 23.1504H27.3616V24.6669H39.8045V23.1504Z" fill="#939598"/>
<path id="Vector_7" d="M39.8045 25.9819H27.3616V27.4985H39.8045V25.9819Z" fill="#939598"/>
<path id="Vector_8" d="M39.8045 28.8145H27.3616V30.331H39.8045V28.8145Z" fill="#939598"/>
<path id="Vector_9" d="M39.8045 31.6465H27.3616V33.163H39.8045V31.6465Z" fill="#939598"/>
<path id="Vector_10" d="M39.8045 34.4785H27.3616V35.9951H39.8045V34.4785Z" fill="#939598"/>
<path id="Vector_11" d="M39.8045 37.3105H27.3616V38.8271H39.8045V37.3105Z" fill="#939598"/>
<path id="Vector_12" d="M39.8045 40.1606H27.3616V41.6772H39.8045V40.1606Z" fill="#939598"/>
</g>
<g id="Group_3">
<path id="Vector_13" d="M75.9088 18.0522H55.262V43.6689H75.9088V18.0522Z" fill="#E4F4FF"/>
<path id="Vector_14" d="M70.9571 20.2998H58.5142V21.8163H70.9571V20.2998Z" fill="#939598"/>
<path id="Vector_15" d="M70.9571 23.1504H58.5142V24.6669H70.9571V23.1504Z" fill="#939598"/>
<path id="Vector_16" d="M70.9571 25.9819H58.5142V27.4985H70.9571V25.9819Z" fill="#939598"/>
<path id="Vector_17" d="M70.9571 28.8145H58.5142V30.331H70.9571V28.8145Z" fill="#939598"/>
<path id="Vector_18" d="M70.9571 31.6465H58.5142V33.163H70.9571V31.6465Z" fill="#939598"/>
<path id="Vector_19" d="M70.9571 34.4785H58.5142V35.9951H70.9571V34.4785Z" fill="#939598"/>
<path id="Vector_20" d="M70.9571 37.3105H58.5142V38.8271H70.9571V37.3105Z" fill="#939598"/>
<path id="Vector_21" d="M70.9571 40.1606H58.5142V41.6772H70.9571V40.1606Z" fill="#939598"/>
</g>
<g id="Group_4">
<path id="Vector_22" d="M107.062 18.0522H86.4331V43.6689H107.062V18.0522Z" fill="#E4F4FF"/>
<path id="Vector_23" d="M102.11 20.2998H89.6672V21.8163H102.11V20.2998Z" fill="#939598"/>
<path id="Vector_24" d="M102.11 23.1504H89.6672V24.6669H102.11V23.1504Z" fill="#939598"/>
<path id="Vector_25" d="M102.11 25.9819H89.6672V27.4985H102.11V25.9819Z" fill="#939598"/>
<path id="Vector_26" d="M102.11 28.8145H89.6672V30.331H102.11V28.8145Z" fill="#939598"/>
<path id="Vector_27" d="M102.11 31.6465H89.6672V33.163H102.11V31.6465Z" fill="#939598"/>
<path id="Vector_28" d="M102.11 34.4785H89.6672V35.9951H102.11V34.4785Z" fill="#939598"/>
<path id="Vector_29" d="M102.11 37.3105H89.6672V38.8271H102.11V37.3105Z" fill="#939598"/>
<path id="Vector_30" d="M102.11 40.1606H89.6672V41.6772H102.11V40.1606Z" fill="#939598"/>
</g>
<g id="Group_5">
<g id="Group_6">
<path id="Vector_31" d="M17.4765 43.5227C17.8602 43.6872 17.7506 43.8151 18.1525 43.9612C18.9565 44.2901 19.8152 44.4728 20.6191 44.82C21.35 45.1306 21.8617 44.7286 22.5012 44.3084C23.5426 43.6141 24.9861 43.1207 25.6804 42.0427C25.9545 41.6225 26.3198 41.1474 26.5026 40.6906C26.667 40.3069 26.7401 39.9049 26.9776 39.5212C27.1969 39.1741 27.8181 38.5711 27.1421 38.425C26.9776 38.3884 26.667 38.3519 26.5026 38.4067C26.1737 38.498 25.8448 38.8269 25.6621 39.101C25.5159 39.3203 25.4794 39.5943 25.3332 39.8136C25.1505 40.0877 24.8399 40.3435 24.5841 40.5444C24.8033 39.704 25.0774 39.0279 25.4246 38.2422C25.6804 37.5845 25.9545 36.945 26.2103 36.2872C26.5757 35.3553 26.9594 34.4235 27.3248 33.5099V33.4916C27.3979 33.3089 27.4892 33.1262 27.5441 32.9435C27.5623 32.8704 27.5441 32.7973 27.5258 32.7242C27.5258 32.706 27.5075 32.6877 27.5075 32.6694C27.4893 32.6329 27.471 32.5963 27.4344 32.5598C27.2334 32.2309 26.8315 32.0665 26.4478 32.1578C26.4112 32.1578 26.3564 32.1761 26.3199 32.1944C26.2651 32.2127 26.2285 32.2309 26.1737 32.2675C26.1189 32.304 26.0823 32.3405 26.0641 32.4136C26.0275 32.505 25.991 32.6146 25.9362 32.706C25.6804 33.3455 25.4246 33.985 25.1688 34.6245C25.0043 35.063 24.8399 35.5015 24.6389 35.94C24.4562 36.3237 24.1821 36.9267 23.9994 37.0363C24.0542 36.945 24.0359 36.7623 24.0725 36.6526C24.1273 36.5247 24.1821 36.3968 24.2186 36.2689C24.31 36.0497 24.4745 35.7573 24.4745 35.5198C24.4745 35.0813 23.8898 34.7707 23.5061 34.8437C23.1041 34.9351 22.9214 35.4102 22.7386 35.7208C22.6838 35.8121 22.4281 36.141 22.4281 35.9766C22.4281 35.6477 22.5925 35.063 22.5194 34.862C22.3915 34.46 21.9347 34.2956 21.551 34.387C21.0029 34.5331 20.7836 35.3188 20.6009 35.7756C20.5461 35.666 20.6739 35.3188 20.6191 35.1909C20.546 35.0082 20.3451 34.8438 20.1623 34.7707C19.3767 34.5149 19.1575 35.4833 18.9017 35.9949C18.4266 36.9084 18.0429 37.8951 17.7688 38.8818C17.6409 39.3568 17.4764 39.8684 17.4216 40.38C17.3668 40.8185 17.5496 41.257 17.4582 41.6956C17.3851 42.061 17.3669 42.7918 17.239 43.139C17.2024 43.3034 17.4765 43.5227 17.4765 43.5227Z" fill="#EAB38B"/>
<path id="Vector_32" d="M16.983 42.5728L22.3731 44.8384L21.5144 46.355L16.4531 43.9614L16.983 42.5728Z" fill="#E4F4FF"/>
<path id="Vector_33" d="M26.2467 33.583C26.5573 33.7657 26.9593 33.5647 27.1603 33.1262L27.3247 32.7608C27.343 32.7243 27.343 32.706 27.3612 32.6694C27.343 32.6329 27.3247 32.5963 27.2882 32.5598C27.0872 32.2309 26.6852 32.0665 26.3015 32.1578C26.265 32.1578 26.2101 32.1761 26.1736 32.1944L26.0457 32.4867C25.863 32.907 25.9543 33.4003 26.2467 33.583Z" fill="#F2C4A5"/>
</g>
<path id="Vector_34" d="M15.9234 43.5044C14.5347 45.0392 12.7807 47.3231 11.3007 50.3927C9.93033 53.2614 9.25429 55.8742 8.90713 57.8293C8.76096 58.1216 8.50512 58.7611 8.52339 59.5833C8.54166 60.1863 8.70612 60.7892 8.99847 61.3191L16.709 75.0958L23.908 66.1245L18.3901 58.1764L22.0261 46.3365L15.9234 43.5044Z" fill="#455256"/>
</g>
<g id="Group_7">
<g id="Group_8">
<path id="Vector_35" d="M82.3038 41.9333C81.9019 42.0977 82.0115 42.2256 81.6095 42.3901C80.769 42.7372 79.8737 42.9382 79.0332 43.2854C78.2658 43.6143 77.736 43.194 77.0782 42.7555C76.0002 42.0429 74.5019 41.513 73.7711 40.3985C73.4787 39.96 73.1133 39.4666 72.9123 38.9916C72.7479 38.5896 72.6565 38.1694 72.4189 37.7857C72.1997 37.4202 71.5419 36.799 72.2545 36.6345C72.4372 36.598 72.7478 36.5615 72.9305 36.6163C73.2594 36.7076 73.6066 37.0548 73.8076 37.3471C73.9538 37.5847 73.9903 37.8587 74.1548 38.0963C74.3558 38.3886 74.6664 38.6444 74.9404 38.8637C74.7212 37.9866 74.4288 37.2923 74.0634 36.4701C73.7893 35.7941 73.5153 35.118 73.2412 34.442C72.8575 33.4736 72.4555 32.5052 72.0718 31.5368V31.5185C71.9987 31.3358 71.9073 31.1531 71.8525 30.9521C71.8343 30.879 71.8526 30.8059 71.8708 30.7328C71.8708 30.7146 71.8891 30.6963 71.8891 30.678C71.9074 30.6415 71.9256 30.5867 71.9622 30.5501C72.1814 30.203 72.5834 30.0385 72.9854 30.1299C73.0219 30.1299 73.0767 30.1482 73.1133 30.1664C73.1681 30.1847 73.2047 30.203 73.2595 30.2395C73.3143 30.2761 73.3508 30.3309 73.3691 30.3857C73.4056 30.4953 73.4421 30.5867 73.497 30.6963C73.7528 31.3541 74.0269 32.0301 74.2827 32.6879C74.4654 33.1447 74.6298 33.6015 74.8308 34.0582C75.0135 34.4602 75.3059 35.0997 75.5068 35.2094C75.452 35.0997 75.4703 34.917 75.4155 34.8074C75.3607 34.6795 75.3059 34.5516 75.2511 34.4237C75.1597 34.1862 74.9769 33.8938 74.9769 33.638C74.9769 33.1812 75.5799 32.8524 75.9819 32.9437C76.4022 33.0351 76.6032 33.5284 76.7859 33.8573C76.8407 33.9486 77.1147 34.2958 77.1147 34.1131C77.1147 33.7659 76.9503 33.163 77.0234 32.9437C77.1513 32.5235 77.6446 32.3407 78.0283 32.4504C78.613 32.5965 78.8323 33.4188 79.015 33.8938C79.0881 33.7842 78.9419 33.4187 78.9967 33.2908C79.0698 33.0899 79.2891 32.9254 79.4718 32.8706C80.294 32.5965 80.5133 33.6015 80.7873 34.1314C81.2807 35.0997 81.6826 36.1047 81.975 37.1461C82.1211 37.6395 82.2856 38.1876 82.3404 38.6992C82.3952 39.156 82.1942 39.6128 82.3038 40.0696C82.3769 40.4533 82.3952 41.2207 82.5414 41.5678C82.5779 41.6957 82.3038 41.9333 82.3038 41.9333Z" fill="#EAB38B"/>
<path id="Vector_36" d="M82.8154 40.9463L77.2061 43.285L78.1014 44.8747L83.3636 42.3715L82.8154 40.9463Z" fill="#455256"/>
<path id="Vector_37" d="M73.1682 31.5733C72.8576 31.756 72.4191 31.5367 72.2181 31.0982L72.0537 30.7328C72.0354 30.6962 72.0171 30.6597 72.0171 30.6414C72.0354 30.6049 72.0536 30.5501 72.0902 30.5135C72.3094 30.1664 72.7114 30.0019 73.1134 30.0933C73.1499 30.0933 73.2048 30.1115 73.2413 30.1298L73.3875 30.4222C73.5702 30.879 73.4788 31.3906 73.1682 31.5733Z" fill="#F2C4A5"/>
</g>
<path id="Vector_38" d="M83.2722 41.5127C84.6609 43.0475 86.4149 45.3314 87.8949 48.4011C89.2653 51.2697 89.9413 53.8825 90.2885 55.8376C90.4347 56.1299 90.6905 56.7694 90.6722 57.5916C90.654 58.1946 90.4895 58.7975 90.1972 59.3274L82.4866 73.1042L75.2876 64.1328L80.8056 56.1847L77.7177 44.1255L83.2722 41.5127Z" fill="#455256"/>
</g>
<g id="Group_9">
<g id="Group_10">
<path id="Vector_39" d="M102.841 65.0284C102.585 65.1015 102.311 65.1563 102.037 65.2111C100.411 65.5034 98.7481 65.5765 97.0853 65.4669C95.3313 65.3755 93.5772 65.0832 91.8597 64.7178C91.3664 65.0284 90.7817 65.2659 90.0691 65.54C92.3348 67.221 93.2118 67.2575 97.0488 67.5681C97.0671 67.5681 97.0854 67.5681 97.1036 67.5681C100.904 67.2575 102.329 66.8921 104.12 65.54C103.627 65.3755 103.206 65.2111 102.841 65.0284Z" fill="#DEB09D"/>
<path id="Vector_40" d="M90.0509 65.5581C86.0494 67.0564 85.3368 67.3853 84.003 69.3951C83.8934 69.5596 83.802 69.7423 83.7289 69.925C83.5279 70.4731 82.2124 77.6538 81.8835 79.7368H96.7382V67.568C93.157 67.2574 92.2617 67.2025 90.0509 65.5581Z" fill="#5D388E"/>
<path id="Vector_41" d="M110.424 69.925C110.351 69.7423 110.259 69.5596 110.15 69.3951C108.816 67.3853 108.103 67.0564 104.102 65.5581C102.311 66.9102 100.886 67.2756 97.0854 67.5862C97.0672 67.5862 97.0489 67.5862 97.0306 67.5862C96.9393 67.5862 96.8479 67.568 96.7383 67.568V79.7368H96.9758H97.0672H112.269C111.958 77.6356 110.625 70.4731 110.424 69.925Z" fill="#653D9B"/>
<path id="Vector_42" d="M91.9145 44.8018C91.7135 44.3268 91.5674 43.7969 91.4943 43.2305C91.0192 43.468 90.5807 43.7969 90.197 44.1623C87.6207 46.7752 88.114 50.3381 88.5708 53.7183C89.0459 57.2082 89.5758 60.5336 89.1007 64.0417C89.996 64.2793 90.9279 64.5168 91.8414 64.6995C93.559 65.0649 95.313 65.3573 97.0671 65.4486C98.7298 65.54 100.393 65.4852 102.019 65.1928C102.293 65.138 102.567 65.0832 102.823 65.0101C103.736 64.7726 104.613 64.4437 105.563 64.2793C105.563 62.0867 105.582 59.8941 105.6 57.7015C105.6 57.5736 105.6 57.4274 105.6 57.2995C99.351 56.2946 93.8696 50.667 91.9145 44.8018Z" fill="#414042"/>
<path id="Vector_43" d="M105.527 49.0226C105.344 44.948 101.946 41.4216 97.8163 41.2389C96.3363 41.1658 94.6005 41.5861 93.9976 42.9199C93.1571 42.6824 92.2801 42.8468 91.4944 43.2305C91.5675 43.7969 91.7137 44.3268 91.9146 44.8019C93.8697 50.667 99.3512 56.2946 105.637 57.3179C105.655 54.5406 105.637 51.7816 105.527 49.0226Z" fill="#454446"/>
</g>
<g id="Group_11">
<g id="Group_12">
<path id="Vector_44" d="M38.2147 52.1834C38.1964 51.891 38.0503 51.4159 37.6666 51.69C37.5021 51.8179 37.5752 52.1285 37.429 52.2382C37.0453 52.494 37.0088 51.9276 36.9905 51.6718C36.8992 50.7216 37.3194 49.808 37.2098 48.8579C37.0453 47.5607 35.474 45.9162 34.3229 45.4777C33.19 45.0392 31.6735 45.0392 30.5041 45.4594C29.3347 45.0575 27.8182 45.0392 26.6854 45.4777C25.5343 45.9162 24.6755 47.5607 24.5111 48.8579C24.4014 49.7898 24.8217 50.7034 24.7303 51.6718C24.712 51.9276 24.6755 52.494 24.2918 52.2382C24.1274 52.1285 24.2187 51.8179 24.0543 51.69C23.3965 51.1967 23.561 52.5853 23.6158 52.8228C23.8716 53.773 24.2187 54.9241 25.0958 55.527C25.3333 55.6915 25.8997 55.8011 26.0459 55.9655C26.4296 56.3858 27.0325 58.7611 27.0143 59.3458L26.8681 63.1828L31.3629 67.3122L32.8063 65.686L35.2547 63.0549C35.2547 60.8623 34.3594 58.1581 36.1135 56.3675C37.4656 54.9423 38.3061 54.2846 38.2147 52.1834Z" fill="#F9CFB3"/>
<path id="Vector_45" d="M23.6339 50.7948C23.7436 51.2882 23.8532 51.7998 23.9263 52.3479C24.1456 53.9193 25.5159 54.8511 26.1919 56.258C26.5026 56.9158 27.2151 57.6466 27.3613 58.3592C28.3845 58.0121 27.7816 57.7928 28.6038 58.542C29.1154 58.9987 30.8877 58.9439 31.509 58.7429C31.9109 58.615 32.0754 58.1582 32.5322 58.1034C32.989 58.0303 33.4458 58.4141 33.9208 58.3958C33.8112 58.3958 34.8709 58.1948 34.6699 58.2679C36.0037 57.6832 37.0635 55.3627 37.5203 54.1203C37.8309 53.2798 38.3973 52.6037 38.6897 51.7632C39.0003 50.941 38.9637 49.9361 39.0916 49.0773C39.6215 45.1307 39.183 41.2388 34.1218 40.3983C31.8013 40.0146 29.0971 39.8868 26.8863 40.7638C25.0043 41.5129 23.8349 43.4314 23.1954 45.2403C22.5559 47.0675 23.2685 49.2052 23.6339 50.7948Z" fill="#3D3B36"/>
</g>
<path id="Vector_46" d="M35.1632 61.8672L32.2763 62.3971C31.3262 62.5798 30.3578 62.5615 29.4077 62.3788L26.7583 61.8672L25.8447 64.5531L27.6171 70.4H34.3227L36.095 64.5531L35.1632 61.8672Z" fill="#E4F4FF"/>
</g>
<g id="Group_13">
<g id="Group_14">
<path id="Vector_47" d="M71.4324 52.1835C71.4141 51.8912 71.2679 51.4161 70.9025 51.6902C70.738 51.8181 70.8111 52.1104 70.665 52.2201C70.2812 52.4759 70.2447 51.9095 70.2265 51.6719C70.1351 50.7401 70.5553 49.8448 70.4457 48.9129C70.2813 47.6339 68.7464 46.026 67.6136 45.5875C66.499 45.149 65.0191 45.1672 63.8679 45.5692C62.7168 45.1672 61.2369 45.1673 60.1223 45.5875C58.9895 46.026 58.149 47.6339 57.9845 48.9129C57.8749 49.8265 58.2951 50.7401 58.2038 51.6719C58.1855 51.9095 58.149 52.4759 57.7653 52.2201C57.6008 52.1104 57.6922 51.8181 57.5277 51.6902C56.8882 51.2151 57.0344 52.5672 57.1075 52.8048C57.3633 53.7549 57.7104 54.8694 58.5509 55.4724C58.7885 55.6368 59.3366 55.7465 59.4828 55.8926C59.8482 56.2946 60.4512 58.6334 60.4329 59.1998L60.2867 62.9637L64.7084 67.02L66.1154 65.4304L68.5272 62.8541C68.5272 60.698 67.6502 58.0304 69.3677 56.2946C70.7015 54.8877 71.5237 54.2482 71.4324 52.1835Z" fill="#F9CFB3"/>
<path id="Vector_48" d="M57.1075 50.8316C57.2171 51.3067 57.3085 51.8183 57.3816 52.3481C57.5826 53.883 58.9347 54.8148 59.5925 56.1851C59.9031 56.8246 60.5974 57.5555 60.7436 58.2498C61.7485 57.9027 61.1455 57.7017 61.9677 58.4143C62.4793 58.8711 64.1969 58.8162 64.8181 58.6153C65.2201 58.4874 65.3663 58.0489 65.8231 57.9758C66.2799 57.9027 66.7184 58.2864 67.1751 58.2681C67.0655 58.2681 68.107 58.0671 67.9243 58.1585C69.2216 57.5921 70.2813 55.3081 70.7381 54.0839C71.0487 53.2617 71.5969 52.5857 71.8892 51.7817C72.1998 50.9778 72.1633 49.9911 72.2729 49.1506C72.8028 45.2771 72.3642 41.4583 67.3944 40.6178C65.1104 40.2341 62.4611 40.1245 60.305 40.9833C58.4596 41.7141 57.3085 43.5961 56.6873 45.3867C56.0661 47.1773 56.7786 49.2603 57.1075 50.8316Z" fill="#624026"/>
</g>
<g id="Group_15">
<path id="Vector_49" d="M68.4358 61.6851L65.6037 62.3976C64.6719 62.6352 63.7217 62.6169 62.7899 62.3794L60.1771 61.6851L59.2817 65.248L61.0176 73.0317H67.5953L69.3311 65.248L68.4358 61.6851Z" fill="#E4F4FF"/>
<path id="Vector_50" d="M73.6615 66.7279C72.8941 66.2529 72.0902 65.8326 71.2314 65.4855C70.1534 65.047 69.2946 64.6998 68.984 64.5719C68.8926 64.5354 68.8378 64.5171 68.8378 64.5171H59.7569C59.7569 64.5171 59.7021 64.5354 59.629 64.5719C59.3184 64.6998 58.4596 65.047 57.3816 65.4855C54.4764 66.6731 49.9634 68.5368 49.8355 68.6464C49.7076 68.7561 48.1727 73.0316 47.2409 75.6261C46.4369 77.8553 46.9303 89.0009 48.2276 90.755C51.5347 95.268 79.2343 90.7915 81.2259 88.0873C83.6195 84.8167 82.0116 77.9101 80.4951 74.6212C78.9968 71.4054 76.6398 68.5916 73.6615 66.7279Z" fill="#455256"/>
</g>
</g>
<g id="Group_16">
<g id="Group_17">
<path id="Vector_51" d="M94.6737 63.9683C94.6555 63.6212 94.4727 63.0365 94.0159 63.3654C93.815 63.5115 93.9063 63.8953 93.7236 64.0232C93.2668 64.3338 93.212 63.6395 93.1937 63.3471C93.0841 62.196 93.5957 61.0997 93.4495 59.9669C93.2668 58.3955 91.3666 56.4405 89.9962 55.8923C88.6258 55.3625 86.817 55.3625 85.4101 55.8558C84.0032 55.3625 82.1943 55.3625 80.8239 55.8923C79.4535 56.4222 78.3938 58.3955 78.2111 59.9669C78.0649 61.0997 78.5948 62.196 78.4669 63.3471C78.4303 63.6395 78.3938 64.3338 77.937 64.0232C77.7543 63.8953 77.8457 63.5298 77.6447 63.3654C76.859 62.7807 77.0417 64.4434 77.1331 64.7175C77.4437 65.8686 77.8639 67.2572 78.9054 67.9698C79.1978 68.1708 79.8738 68.2987 80.0382 68.4997C80.495 68.993 81.2259 71.8616 81.1894 72.5559L81.0066 77.1604L86.415 82.1302L88.1325 80.1752L91.0743 77.0142C91.0743 74.3648 89.9962 71.1125 92.0975 68.9747C93.7784 67.2937 94.8016 66.5081 94.6737 63.9683Z" fill="#F9CFB3"/>
<path id="Vector_52" d="M77.1514 62.3057C77.2793 62.8904 77.4072 63.5116 77.4985 64.1694C77.7543 66.0514 79.3988 67.1842 80.221 68.8652C80.6047 69.6509 81.4635 70.5462 81.6279 71.3867C82.8521 70.9664 82.1213 70.7106 83.1262 71.6059C83.7474 72.1541 85.8669 72.0992 86.6343 71.8617C87.1093 71.6973 87.3104 71.1674 87.8585 71.0943C88.4067 71.0212 88.9548 71.478 89.5212 71.4415C89.3933 71.4415 90.6541 71.2039 90.4348 71.2953C92.0427 70.601 93.3217 67.8055 93.8698 66.3072C94.2353 65.3023 94.9113 64.48 95.295 63.4751C95.6605 62.4884 95.6239 61.2825 95.77 60.241C96.4095 55.5087 95.8797 50.8129 89.7953 49.808C86.9997 49.3512 83.7657 49.205 81.098 50.2465C78.8506 51.1418 77.4438 53.444 76.6763 55.6366C75.8724 57.8292 76.7311 60.3872 77.1514 62.3057Z" fill="#624026"/>
<path id="Vector_53" d="M91.0195 75.6074L87.5479 76.2469C86.4151 76.4479 85.2457 76.4479 84.1129 76.2286L80.9153 75.6074L79.8191 78.8232L81.9386 85.8577H89.9963L92.1158 78.8232L91.0195 75.6074Z" fill="#E4F4FF"/>
</g>
<g id="Group_18">
<path id="Vector_54" d="M103.59 99.9814C103.371 97.5695 103.755 95.2674 104.084 92.8921C104.504 89.8407 103.718 86.2412 102.987 83.2995C102.713 82.2032 102.366 81.0704 101.544 80.2847C101.197 79.9558 100.74 79.6817 100.21 79.4442C98.8031 78.7864 96.9576 78.3662 95.7517 78.0008C93.4312 77.3064 90.855 77.1055 88.4431 77.1055C86.1774 77.1055 83.9118 77.1055 81.6461 77.1055C81.6461 77.1055 81.5913 77.1237 81.5182 77.142C81.2076 77.2333 80.3671 77.4892 79.2891 77.8181C76.4204 78.6951 71.9439 80.0472 71.816 80.1203C71.6881 80.2116 70.1716 83.3178 69.2397 85.218C68.6733 86.3691 68.0703 95.4866 68.1982 99.9814H103.59Z" fill="#3D5872"/>
</g>
</g>
<g id="Group_19">
<path id="Vector_55" d="M22.3366 99.8356C22.3914 99.8905 22.4463 99.927 22.4828 99.9636H25.3697C26.4842 98.7028 27.4344 96.4189 29.5356 96.7295C30.5771 96.8939 34.341 99.7443 35.4008 99.5981C36.8442 99.3971 36.1316 83.6653 38.379 83.0807C41.814 82.1854 45.0846 101.718 47.1128 99.6712C48.41 98.3557 49.1592 75.4249 48.3553 73.7622C47.4052 71.8072 45.8338 68.5913 45.7059 68.5183C45.578 68.4269 40.9736 67.0383 38.0136 66.143C36.9173 65.8141 36.0403 65.5583 35.7297 65.4487C35.6383 65.4121 35.5834 65.4121 35.5834 65.4121H26.3198C26.3198 65.4121 26.265 65.4304 26.1736 65.4487C25.8447 65.54 24.986 65.8141 23.8715 66.143C23.6887 66.1978 23.3964 66.1247 23.0127 65.9785C19.8152 69.0847 16.8734 75.0595 15.8502 77.6175C15.5762 78.2753 15.3386 78.9513 15.1194 79.6273C15.2107 79.7735 15.2838 79.9197 15.3569 80.0293C16.709 82.8249 21.1672 98.6663 22.3366 99.8356Z" fill="#455256"/>
</g>
<g id="Group_20">
<g id="Group_21">
<path id="Vector_56" d="M28.0376 83.2817C25.5344 82.021 26.2287 77.1242 26.5393 74.7124C23.287 75.1692 19.9798 75.3154 16.7092 75.1327C16.8554 77.1425 16.8554 79.8284 16.0332 81.7104C15.4485 83.0442 14.1878 83.4279 12.8357 83.9578C15.5216 85.9677 16.5631 85.9859 21.131 86.3696C21.1492 86.3696 21.1675 86.3696 21.1858 86.3696C25.6989 85.9859 27.3981 85.584 29.5358 83.9578C29.006 83.7203 28.5127 83.5193 28.0376 83.2817Z" fill="#E2BBA1"/>
<path id="Vector_57" d="M18.1344 62.9636C16.965 61.3192 15.7774 59.2545 15.1927 57.1533C14.3705 57.4274 13.6213 57.9207 13.0001 58.5419C10.4055 61.1913 10.9537 65.0831 11.2826 68.5547C11.648 72.4283 12.5616 76.247 14.0233 79.8648C16.563 78.6223 19.45 78.1107 22.2638 78.2934C22.7388 78.33 23.2321 78.3665 23.7255 78.4396C25.4613 78.6954 26.8316 79.207 28.1837 80.3033C29.6272 78.1473 30.3398 76.4298 30.8331 73.8169C31.0158 72.8303 31.162 71.7888 31.2533 70.7108C26.2287 69.6328 21.5329 67.0565 18.1344 62.9636Z" fill="#CCAF54"/>
<path id="Vector_58" d="M30.5041 61.6665C29.4443 58.0488 25.7535 55.2167 22.0444 55.034C20.2904 54.9609 18.2256 55.436 17.4948 57.0438C16.7274 56.8246 15.9234 56.8977 15.1743 57.1535C15.759 59.2547 16.9466 61.3194 18.116 62.9638C21.5145 67.0384 26.2103 69.6147 31.235 70.6927C31.4908 67.6596 31.308 64.389 30.5041 61.6665Z" fill="#D0B256"/>
</g>
<g id="Group_22">
<path id="Vector_59" d="M39.0552 99.9817C38.5253 96.839 37.2097 89.7131 36.9905 89.1284C36.9174 88.9091 36.8077 88.6899 36.6798 88.5071C35.0902 86.1136 34.2497 85.7481 29.4991 83.9393C26.9959 85.8395 23.5426 86.4425 20.4547 86.3694C17.4217 86.2963 15.9051 85.5289 13.1644 84.2864C12.5797 84.0124 11.319 83.7383 11.319 83.7383C11.319 83.7383 5.89232 87.1002 4.57677 88.7629C2.63999 91.1931 1.17831 94.0434 0.502261 97.0765C0.301274 97.9353 0.00891225 99.0498 0.0271838 99.9999H39.0552V99.9817Z" fill="#14BAC6"/>
</g>
</g>
<g id="Group_23">
<g id="Group_24">
<path id="Vector_60" d="M50.9133 65.2109C50.895 64.882 50.7306 64.3338 50.292 64.6627C50.1093 64.8089 50.2007 65.156 50.018 65.2657C49.5795 65.5397 49.5429 64.9185 49.5246 64.6262C49.415 63.5482 49.8901 62.5249 49.7622 61.4652C49.5794 60.0035 47.8071 58.1581 46.5281 57.6647C45.2491 57.1714 43.5498 57.1714 42.2343 57.6282C40.9188 57.1714 39.2195 57.1714 37.9405 57.6647C36.6432 58.1581 35.6748 60.0035 35.4921 61.4652C35.3642 62.5249 35.8393 63.5482 35.7296 64.6262C35.6931 64.9003 35.6565 65.5397 35.2363 65.2657C35.0536 65.156 35.1449 64.8089 34.9622 64.6627C34.2314 64.1146 34.3958 65.6677 34.4689 65.9417C34.7613 67.0198 35.1632 68.317 36.1316 68.9748C36.4057 69.1758 37.0269 69.2854 37.1913 69.4681C37.6116 69.9249 38.3059 72.5926 38.2694 73.2503L38.1049 77.5624L43.1662 82.2034L44.774 80.3762L47.533 77.4162C47.533 74.9496 46.5281 71.9165 48.4831 69.9066C50.0727 68.317 51.0229 67.5862 50.9133 65.2109Z" fill="#F9CFB3"/>
<path id="Vector_61" d="M34.5419 63.6579C34.6698 64.206 34.7794 64.7907 34.8708 65.3937C35.1083 67.166 36.6431 68.2075 37.4105 69.7971C37.7577 70.528 38.5616 71.3685 38.7261 72.1541C39.8589 71.7522 39.1829 71.5329 40.1147 72.3551C40.6994 72.8667 42.6727 72.8119 43.3853 72.5927C43.8421 72.4465 44.0066 71.9349 44.5182 71.8618C45.0298 71.7887 45.5414 72.209 46.0713 72.1907C45.9616 72.1907 47.131 71.9714 46.9117 72.0628C48.41 71.405 49.5977 68.8104 50.1275 67.4035C50.4747 66.4534 51.0959 65.686 51.4431 64.7542C51.7902 63.8223 51.7537 62.7078 51.8999 61.7394C52.5028 57.3177 52.0095 52.9325 46.327 51.9824C43.7142 51.5439 40.6994 51.416 38.2145 52.4026C36.1132 53.2431 34.7977 55.3992 34.0669 57.4456C33.336 59.492 34.14 61.8673 34.5419 63.6579Z" fill="#624026"/>
</g>
<g id="Group_25">
<path id="Vector_62" d="M47.4965 76.1006L44.2624 76.7035C43.2026 76.9045 42.1064 76.8862 41.0466 76.6853L38.0684 76.1006L37.0452 79.1154L39.0368 85.6931H46.5646L48.5562 79.1154L47.4965 76.1006Z" fill="#E4F4FF"/>
<path id="Vector_63" d="M64.2881 99.9814C63.8861 95.0481 62.8447 89.0185 62.2965 87.8857C61.2368 85.6931 59.4644 82.0936 59.3183 81.984C59.1721 81.8926 54.0012 80.3213 50.6758 79.3164C49.4516 78.9509 48.4649 78.6586 48.0995 78.549C47.9899 78.5124 47.9351 78.4941 47.9351 78.4941H37.5386C37.5386 78.4941 37.4838 78.5124 37.3741 78.549C37.0087 78.6586 36.0403 78.9509 34.7979 79.3164C31.4724 80.3213 26.3016 81.8926 26.1555 81.984C26.0093 82.0754 24.2552 85.6931 23.1954 87.8674C22.4828 89.3474 21.6789 96.3089 22.0626 99.9814H64.2881Z" fill="#3D5872"/>
</g>
</g>
<g id="Group_26">
<path id="Vector_64" d="M76.2013 70.7106C76.183 70.3452 75.982 69.7605 75.4887 70.0893C75.2694 70.2538 75.379 70.6192 75.1598 70.7654C74.6482 71.076 74.6117 70.3817 74.5751 70.0711C74.4472 68.9017 75.0136 67.7689 74.8674 66.5995C74.6664 64.9916 72.5835 62.9635 71.0853 62.4153C69.587 61.8672 67.5954 61.8854 66.0606 62.3788C64.5258 61.8672 62.5342 61.8672 61.0359 62.4153C59.5194 62.9635 58.3865 64.9733 58.1673 66.5995C58.0211 67.7506 58.5875 68.8834 58.4596 70.0711C58.4231 70.3817 58.3865 71.076 57.8749 70.7654C57.6739 70.6375 57.7836 70.2538 57.5461 70.0893C56.6873 69.4864 56.8883 71.2039 56.9796 71.478C57.3268 72.6656 57.7836 74.0908 58.9164 74.8217C59.2453 75.0409 59.9761 75.1506 60.1589 75.3515C60.6522 75.8631 61.4561 78.8049 61.4196 79.5174L61.2186 84.2498L67.1386 89.3475L69.0206 87.3377L72.2546 84.0853C72.2546 81.3629 71.067 78.0192 73.3692 75.8266C75.2146 74.1273 76.3474 73.3234 76.2013 70.7106Z" fill="#F9CFB3"/>
<path id="Vector_65" d="M57.016 69.0115C57.1622 69.6144 57.2901 70.2539 57.3997 70.93C57.6738 72.8668 59.4827 74.0361 60.378 75.7719C60.7982 76.5759 61.7301 77.4894 61.9311 78.3665C63.2649 77.928 62.4792 77.6722 63.5572 78.5857C64.2333 79.1522 66.5538 79.0973 67.3943 78.8415C67.9241 78.6771 68.1251 78.129 68.7281 78.0376C69.3311 77.9645 69.9157 78.4213 70.5552 78.403C70.4091 78.403 71.7977 78.1472 71.5419 78.2568C73.296 77.5443 74.7029 74.6756 75.3059 73.1226C75.7078 72.0811 76.4387 71.2406 76.8589 70.2174C77.2609 69.1942 77.2243 67.97 77.3888 66.892C78.0831 62.0135 77.5167 57.2081 70.8476 56.1666C67.7963 55.6915 64.2516 55.5454 61.3464 56.6234C58.8797 57.537 57.3449 59.9123 56.5044 62.1596C55.6091 64.407 56.5593 67.0381 57.016 69.0115Z" fill="#3D3B36"/>
<g id="Group_27">
<path id="Vector_66" d="M72.1996 82.6787L68.3992 83.3365C67.1567 83.5557 65.8777 83.5375 64.6352 83.3182L61.1454 82.6787L59.9395 85.9859L62.2599 93.2214H71.0668L73.3873 85.9859L72.1996 82.6787Z" fill="#E4F4FF"/>
<path id="Vector_67" d="M90.7271 99.9816C90.4165 98.1179 89.9779 96.4369 89.5577 95.6513C88.3152 93.2394 86.2505 89.2745 86.0678 89.1649C85.9034 89.0552 79.8373 87.3377 75.9454 86.2231C74.502 85.8212 73.3508 85.4923 72.9306 85.3644C72.8027 85.3278 72.7479 85.3096 72.7479 85.3096H60.5791C60.5791 85.3096 60.506 85.3278 60.3964 85.3644C59.9761 85.474 58.825 85.8029 57.3816 86.2231C53.4897 87.3377 47.4419 89.0552 47.2774 89.1649C47.113 89.2745 45.0482 93.2394 43.8058 95.6513C43.4404 96.3638 42.9288 98.0266 42.4902 99.9999H90.7271V99.9816Z" fill="#20B7EA"/>
</g>
</g>
<g id="Group_28">
<g id="Group_29">
<g id="Group_30">
<path id="Vector_68" d="M115.722 83.2088C113.201 81.9298 113.895 76.9965 114.206 74.5664C110.935 75.0415 107.592 75.1694 104.303 74.9866C104.449 77.0148 104.449 79.719 103.608 81.6192C103.005 82.9713 101.745 83.355 100.393 83.8849C103.115 85.913 104.157 85.9313 108.743 86.315C108.761 86.315 108.779 86.315 108.797 86.315C113.347 85.9313 115.065 85.511 117.221 83.8849C116.709 83.6656 116.216 83.4464 115.722 83.2088Z" fill="#ECCAB8"/>
<path id="Vector_69" d="M127.873 98.5935C126.813 93.5323 127.032 87.9595 122.629 85.3101C121.953 84.9082 121.167 84.561 120.254 84.3052C119.285 84.0311 118.244 84.2504 117.275 83.885L117.221 83.8667C115.101 85.4746 113.402 85.8948 109.035 86.2785C108.962 86.2785 108.889 86.2968 108.816 86.2968C108.797 86.2968 108.779 86.2968 108.761 86.2968C104.175 85.9131 103.115 85.8948 100.411 83.8667C95.6236 85.6756 94.7649 86.0593 93.157 88.4711C93.0291 88.6721 92.9195 88.8731 92.8281 89.1106C92.6089 89.6953 91.2933 96.8029 90.7634 100H109.035H127.8C128.056 99.5985 127.983 99.0686 127.873 98.5935Z" fill="#F4384F"/>
<g id="Group_31">
<path id="Vector_70" d="M117.422 70.7657C117.677 70.2724 117.897 69.7608 118.043 69.2126C118.701 66.6729 118.938 63.9504 118.189 61.4107C117.129 57.7747 113.402 54.9061 109.656 54.7233C107.884 54.632 105.819 55.1253 105.07 56.7515C104.266 56.5322 103.407 56.6053 102.622 56.8976C103.097 59.9672 104.942 62.9273 106.568 65.8872C109.327 69.304 113.329 70.5647 117.422 70.7657Z" fill="#78563B"/>
<path id="Vector_71" d="M106.587 65.9056C104.942 62.9456 103.097 59.9856 102.64 56.916C101.854 57.1901 101.142 57.6834 100.557 58.2681C98.6749 60.1866 97.8893 62.9639 97.9075 65.6132C97.9258 66.9653 98.1451 68.3174 98.6019 69.5964C99.1317 71.0399 100.191 72.2093 101.269 73.2873C101.854 73.8902 102.475 74.4567 103.078 75.0231C103.517 75.4251 103.955 75.827 104.394 76.2473C104.705 76.5396 105.198 76.8502 105.344 77.2705C105.673 78.2389 104.979 79.2072 104.979 80.1391C104.321 82.6971 104.266 85.383 104.504 88.0141C104.741 90.6452 105.289 93.2398 105.819 95.8161C107.445 95.8891 109.071 95.9805 110.698 96.0536C110.88 92.6003 111.374 89.1104 111.629 85.7119C111.629 85.6754 111.703 85.6571 111.703 85.7119C111.684 88.1786 111.666 95.0669 111.629 96.0719L112.525 96.145C113.128 92.9474 112.89 89.6768 113.256 86.461C113.402 85.1272 113.384 83.7934 113.329 82.4596C113.256 81.1258 112.854 79.9016 112.744 78.586C112.689 78.0379 112.707 77.4897 112.854 76.9599C113.018 76.3752 113.31 76.028 113.731 75.6443C114.151 75.2241 114.535 74.7307 114.9 74.2557C115.777 73.1228 116.764 72.0631 117.44 70.8023C113.329 70.5648 109.327 69.3041 106.587 65.9056Z" fill="#745238"/>
</g>
</g>
<path id="Vector_72" d="M113.822 77.2703C113.822 78.0194 111.684 78.6406 109.035 78.6406C106.386 78.6406 104.248 78.0194 104.248 77.2703C104.248 76.5211 106.386 75.8999 109.035 75.8999C111.684 75.8999 113.822 76.5211 113.822 77.2703Z" fill="#877960"/>
</g>
</g>
</g>
</g>
</svg>
