<svg width="116" height="100" viewBox="0 0 116 100" fill="none" xmlns="http://www.w3.org/2000/svg">
<g id="_x33_">
<g id="Group">
<path id="Vector" d="M3.60303 6.22046V59.2073C3.60303 62.6399 6.12531 65.4277 9.25445 65.4277H107.529C110.658 65.4277 113.18 62.6399 113.18 59.2073V6.22046C113.18 2.78788 110.658 9.61869e-05 107.529 9.61869e-05H9.25445C6.12531 -0.0188683 3.60303 2.76891 3.60303 6.22046Z" fill="#6D6E71"/>
<path id="Vector_2" d="M6.8269 9.72901V55.68C6.8269 59.2833 9.48194 62.2228 12.7628 62.2228H55.1485L9.29229 4.41895C7.79409 5.61371 6.8269 7.54809 6.8269 9.72901Z" fill="#038276"/>
<path id="Vector_3" d="M104.02 3.18604H12.7628C11.4732 3.18604 10.2785 3.64118 9.31128 4.41872L55.1485 62.2226H104.02C107.301 62.2226 109.956 59.302 109.956 55.6798V9.72879C109.956 6.12553 107.301 3.18604 104.02 3.18604Z" fill="#0C9383"/>
<g id="Group_2">
<path id="Vector_4" d="M26.1708 17.9214C25.3743 17.9783 24.502 18.1111 23.8951 18.13C23.3451 19.4007 23.0417 20.4627 22.852 21.4868C22.3969 21.373 22.1124 21.0885 21.8469 20.6713C22.0366 20.273 22.359 19.4955 22.9469 17.9594C22.7572 17.8835 22.6055 17.7508 22.5486 17.599C22.6055 17.5611 22.8331 17.5042 23.1555 17.4284L23.2693 17.1439C23.8003 15.8164 23.8572 15.5509 24.1416 13.9199C24.6537 14.0147 25.0899 14.413 25.3933 14.9061C25.1657 15.1905 24.7675 16.1198 24.2744 17.2577C25.033 17.1629 25.8674 17.068 26.4553 17.0301C26.8915 15.7595 27.4225 14.5647 27.7828 14.1854C28.0294 14.2044 28.6742 14.5268 28.7879 14.7544C28.3518 15.1526 27.8966 16.1198 27.5173 17.2008C27.6311 17.3146 27.707 17.4473 27.707 17.618C27.707 17.7128 27.688 17.8456 27.6311 17.9404C27.5173 17.9214 27.4035 17.9214 27.2897 17.9025C26.8725 19.211 26.607 20.5575 26.607 21.2213C26.607 21.335 26.607 21.4109 26.626 21.4678C26.095 21.4488 26.2277 21.1264 26.0002 21.0316C25.8295 20.9747 25.7157 20.4248 25.7157 20.2161C25.6967 19.7041 25.9053 18.8317 26.1708 17.9214Z" fill="white"/>
<path id="Vector_5" d="M28.4277 18.3765C28.4846 18.13 28.7501 17.1817 29.3001 16.9162C29.5087 16.9542 29.9069 17.1628 30.1535 17.5231C29.6035 18.1489 29.4328 18.7937 29.1104 19.6092C28.9777 19.9506 28.8449 20.3488 28.8449 20.6143C28.8449 20.8419 28.8449 20.9177 28.788 20.9177C28.6932 20.9177 28.1243 20.6712 28.1243 20.1402C28.1243 19.9126 28.1812 19.4764 28.4277 18.3765ZM29.888 15.987C29.8311 15.9301 29.7742 15.7784 29.7742 15.6835C29.7742 15.4749 29.9069 14.8681 30.0586 14.4888C30.3431 14.4888 30.9879 14.8491 31.1586 15.1336C30.8741 15.3991 30.2104 16.1956 30.1155 16.4042C29.9638 16.3852 29.8311 16.2525 29.8311 16.1576C29.869 16.1008 29.869 16.0439 29.888 15.987Z" fill="white"/>
<path id="Vector_6" d="M28.5413 23.2696C28.8447 23.5351 28.9206 23.5731 29.1861 23.5731C30.4567 23.5731 31.5187 22.2076 32.1446 19.875C31.8601 20.1784 31.2343 20.6146 30.9119 20.7284C30.4947 20.6525 30.1723 20.1405 30.1723 19.5715C30.1723 18.1492 31.8601 16.3286 33.1686 16.3286C33.5859 16.3286 33.7945 16.4803 33.8893 16.9165C33.8324 16.8786 33.7186 16.8596 33.6238 16.8596C32.7514 16.8596 30.9119 19.1164 30.9119 20.2353C30.9119 20.3112 30.9308 20.3301 30.9498 20.3301C31.1584 20.3301 31.7653 19.7991 32.2394 19.2871C32.7704 18.6992 33.2255 17.9216 33.4721 17.2389C33.7945 17.2579 34.0789 17.3717 34.1738 17.4665C33.7566 18.4147 33.529 19.0405 33.3583 19.5336C32.7135 21.2973 32.2584 22.3973 31.386 23.3644C30.9688 23.8386 30.305 24.0851 29.8688 24.0851C29.2809 24.0851 28.6172 23.8006 28.4465 23.4593C28.4275 23.3834 28.4654 23.3265 28.5413 23.2696Z" fill="white"/>
<path id="Vector_7" d="M35.3117 16.7838C35.8047 15.4942 36.6392 14.0908 37.4736 13.1426C37.8529 13.1426 38.4219 13.3512 38.6305 13.5788C37.7202 14.508 36.9616 15.5131 36.5254 16.3476C36.0513 17.2579 35.7668 17.9406 35.5582 18.813C36.715 17.3337 37.6064 16.5752 38.1753 16.5752C38.4977 16.5752 38.896 16.8027 39.1804 17.1441C38.4219 17.9785 37.4736 19.6664 37.4736 20.1594C37.4736 20.2732 37.4926 20.3112 37.6253 20.3112C37.815 20.3112 37.9098 20.2353 37.9477 20.2353C38.0046 20.3301 38.0046 20.3491 38.0046 20.387C38.0046 20.4818 37.3029 20.8042 37.1133 20.8042C36.8668 20.8042 36.6202 20.5198 36.6202 20.2353C36.6202 19.875 37.0564 18.7181 37.6633 17.5234C37.6633 17.5234 37.6443 17.4854 37.6253 17.4854C37.5874 17.4854 37.3978 17.5992 37.265 17.713C36.3926 18.3578 35.4255 19.7043 34.8755 20.9939C34.8376 21.0697 34.7427 21.1646 34.7048 21.1646C34.6289 21.1646 34.4203 20.7663 34.4203 20.5767C34.3824 19.7233 34.7617 18.2061 35.3117 16.7838Z" fill="white"/>
<path id="Vector_8" d="M39.977 19.6663C39.977 19.7421 39.977 19.818 39.977 19.9128C39.977 20.2162 40.0529 20.6524 40.3943 20.6524C41.058 20.6524 41.6838 19.9887 42.0631 19.5714C42.12 19.6283 42.1769 19.6663 42.2148 19.7232C41.6649 20.4438 40.9632 20.9748 40.3753 21.1076C39.5408 21.0127 39.0288 20.4438 39.0288 19.7042C39.0288 18.206 40.4132 16.4233 41.608 16.4233C41.8735 16.4613 42.139 16.6319 42.4045 16.9543C42.3286 18.4525 41.5321 19.0404 39.977 19.6663ZM40.0339 19.3059C41.0011 18.8129 41.7218 18.0733 41.7787 17.2388C41.1149 17.3336 40.3374 18.187 40.0339 19.3059Z" fill="white"/>
<path id="Vector_9" d="M43.713 17.0493C43.8647 16.67 43.9785 16.4803 44.1302 16.3286C44.4716 16.3855 44.9077 16.5941 45.0405 16.7648C44.7181 17.1441 44.4905 17.6182 44.225 18.3957C44.8698 17.8078 45.3629 17.3148 45.818 16.651C45.856 16.6131 45.9129 16.6131 46.0077 16.6131C46.1784 16.6131 46.368 16.67 46.4249 16.7648C46.3111 17.0682 46.2542 17.3337 46.2542 17.6372C46.2542 17.9027 46.2922 18.1113 46.368 18.244C46.368 18.3199 46.1784 18.5664 45.9887 18.7561C45.6663 18.5854 45.3819 18.263 45.2681 17.9216C44.1112 18.7181 43.713 19.3629 43.3716 21.0508C43.144 21.0318 42.7079 20.7473 42.613 20.5577C42.7458 19.837 43.2768 18.0923 43.713 17.0493Z" fill="white"/>
<path id="Vector_10" d="M53.1764 17.4476C53.1764 17.5424 53.1574 17.6562 53.1384 17.732C52.9867 17.7131 52.7971 17.6941 52.5316 17.6941C52.0006 17.6941 51.4506 17.8079 50.9575 17.8837C50.4075 19.1923 50.0283 20.3491 50.0093 20.7095C50.9954 20.5008 52.0006 20.3491 53.1005 20.2733C53.2333 20.4819 53.347 20.7284 53.347 21.0129C53.347 21.0887 53.347 21.1836 53.3281 21.2594C52.9867 21.2594 52.6643 21.2405 52.0385 21.2405C51.223 21.2405 50.6731 21.2974 49.649 21.487C49.3645 21.3732 49.099 21.0887 48.8335 20.6715C49.0421 20.2353 49.4024 19.363 49.9714 17.8648C49.7059 17.7889 49.5162 17.6182 49.4214 17.4096C49.4783 17.3527 49.8007 17.2579 50.2369 17.1441C50.5972 16.1959 50.7489 15.7787 50.8817 15.077C50.4644 15.058 50.1989 14.8115 50.1989 14.4891C50.1989 14.3943 50.2369 14.2236 50.2748 14.1477C50.5213 14.1857 50.711 14.1857 51.0713 14.1857C52.6074 14.1857 53.8022 13.9771 54.2194 13.9771C54.5039 13.9771 54.7315 14.2805 54.8452 14.8115C54.466 14.7736 54.2573 14.7736 54.0677 14.7736C53.4039 14.7736 52.854 14.8494 52.3419 14.9253C52.1902 15.1529 52.0006 15.5511 51.3747 16.9355C51.8299 16.8597 52.2661 16.8217 52.5505 16.8217C52.9488 16.8217 53.1764 17.0683 53.1764 17.4476Z" fill="white"/>
<path id="Vector_11" d="M56.9692 16.8405C56.8554 15.8733 56.6468 15.1906 55.7555 13.7682C55.8313 13.5407 56.3055 13.1614 56.6089 13.1045C57.3106 13.8631 57.8606 15.4751 57.8606 16.7457C57.8606 18.6611 56.4951 21.0127 55.2624 21.2213C54.428 21.1265 53.9539 20.6713 53.9539 19.8938C53.9539 18.6232 55.1866 16.6698 56.1158 16.4422C56.3813 16.4612 56.7227 16.6129 56.9692 16.8405ZM56.9882 17.2767C56.9882 17.0681 56.9882 17.0491 56.9882 17.0112C56.1158 17.3905 54.7883 19.3817 54.7883 20.33C54.7883 20.6334 54.9211 20.8041 55.2055 20.861C56.0589 20.5575 56.9882 18.718 56.9882 17.2767Z" fill="white"/>
<path id="Vector_12" d="M60.3068 19.7989C60.3068 19.6661 60.3258 19.5523 60.3448 19.4765C60.2499 19.4765 59.5862 20.4057 59.3776 20.6523C59.2258 20.804 59.0741 20.9178 58.9983 20.9178C58.619 20.8988 58.107 20.6333 57.9932 20.1971C57.9932 19.8558 58.0121 19.6661 58.069 19.4196C58.2966 18.4903 58.9414 16.9542 59.7 16.3853C59.9086 16.3853 60.3258 16.4611 60.5154 16.6697C60.4016 16.7835 59.9086 17.4852 59.3586 18.7937C59.2448 19.0782 58.9793 19.8937 58.9793 20.2161C58.9793 20.3109 59.0172 20.3678 59.0362 20.3868C59.2258 20.3109 59.4724 20.0075 59.9655 19.3248C60.212 18.9834 60.6672 18.4334 60.8568 17.8835C60.9706 17.58 61.1602 17.049 61.5775 16.6508C61.8999 16.6508 62.336 16.8025 62.4498 16.9352C61.9947 18.0162 61.293 19.0403 61.293 19.9885C61.293 20.5195 61.5016 20.7092 61.5016 20.823C61.5016 20.8419 61.4637 20.8609 61.4637 20.8609C61.293 20.8609 60.8758 20.6902 60.5913 20.5006C60.3637 20.3488 60.3068 20.0075 60.3068 19.7989Z" fill="white"/>
<path id="Vector_13" d="M65.1808 16.3853C65.8066 16.3853 66.167 16.7076 66.167 17.2955C66.167 17.8455 65.8256 18.3955 65.4653 18.3955C65.3136 18.3955 65.1618 18.3007 65.0481 18.149C65.4653 17.7697 65.6549 17.4283 65.6549 17.1249C65.6549 16.9542 65.5791 16.8594 65.4463 16.8594C65.1998 16.8594 64.8015 17.1249 64.4602 17.4852C63.9292 18.0731 63.6447 18.8127 63.6447 19.5903C63.6447 20.0833 63.7585 20.3868 63.9671 20.4816C64.3274 20.4437 64.9912 20.1213 65.5601 19.6851C65.598 19.723 65.6549 19.8178 65.6549 19.8747C65.2567 20.3868 64.4981 20.8988 64.0809 20.9747C63.2654 20.8988 62.6206 20.0644 62.6206 19.0972C62.6396 17.7317 63.8912 16.3853 65.1808 16.3853Z" fill="white"/>
<path id="Vector_14" d="M70.2824 17.3527C69.7893 18.3767 69.4479 19.4577 69.4479 20.0836C69.4479 20.4249 69.5238 20.6525 69.6945 20.7473C69.5427 20.8421 69.2772 20.918 69.0876 20.918C68.7652 20.918 68.5945 20.6904 68.5945 20.2353C68.5945 19.8939 68.7083 19.4008 68.9359 18.8129C68.4428 19.9318 67.6273 20.8421 67.0584 20.937C66.6032 20.918 66.2998 20.4628 66.2998 19.837C66.2998 18.4716 67.6273 16.5941 68.6135 16.5562C68.86 16.613 69.2772 17.0492 69.2962 17.2768C68.31 17.4285 67.1153 19.0595 67.1153 20.1784C67.1153 20.3111 67.1532 20.368 67.248 20.4059C67.6084 20.3301 68.0445 19.818 68.7083 18.7181C68.9738 18.2819 69.3341 17.5992 69.5996 17.0492C69.8651 17.0303 70.2824 17.2389 70.2824 17.3527Z" fill="white"/>
<path id="Vector_15" d="M71.1358 17.2197C71.0789 17.1439 71.022 16.8404 71.022 16.6698C71.3444 16.6887 71.6289 16.7077 71.8754 16.7267C72.2357 16.006 72.7667 15.2095 72.9753 15.0957C73.2219 15.0957 73.8098 15.2853 73.9236 15.4181C73.5632 15.8732 73.3357 16.2336 73.0322 16.7456C73.2788 16.7456 73.5253 16.7456 73.7908 16.7077C73.8477 16.7646 73.8856 16.8594 73.8856 16.9542C73.6012 17.068 73.2219 17.1249 72.8047 17.1439C72.1978 18.3197 71.8375 19.5144 71.8375 20.2541C71.8375 20.5385 71.9513 20.6713 72.1409 20.7092C72.5012 20.6713 72.8426 20.5196 73.1081 20.3109C73.1271 20.3489 73.165 20.4058 73.165 20.4437C73.0322 20.6523 72.3685 21.0885 72.1599 21.1075C71.553 21.0885 70.8513 20.5575 70.8513 20.1403C70.8513 19.5524 71.1927 18.3007 71.6668 17.1818H71.1358V17.2197Z" fill="white"/>
<path id="Vector_16" d="M74.132 18.3765C74.1889 18.13 74.4544 17.1817 75.0044 16.9162C75.213 16.9542 75.6113 17.1628 75.8578 17.5231C75.3078 18.1489 75.1372 18.7937 74.8148 19.6092C74.682 19.9506 74.5493 20.3488 74.5493 20.6143C74.5493 20.8419 74.5493 20.9177 74.4924 20.9177C74.3975 20.9177 73.8286 20.6712 73.8286 20.1402C73.8286 19.9126 73.9045 19.4764 74.132 18.3765ZM75.6113 15.987C75.5544 15.9301 75.4975 15.7784 75.4975 15.6835C75.4975 15.4749 75.6302 14.8681 75.782 14.4888C76.0664 14.4888 76.7112 14.8491 76.8819 15.1336C76.5974 15.3991 75.9337 16.1956 75.8388 16.4042C75.6871 16.3852 75.5544 16.2525 75.5544 16.1576C75.5733 16.1008 75.5923 16.0439 75.6113 15.987Z" fill="white"/>
<path id="Vector_17" d="M75.9148 19.5714C75.9148 18.5852 76.5406 17.4094 77.413 16.7836C77.7354 16.537 78.0768 16.4043 78.3612 16.4043C78.5509 16.4991 78.7595 16.7267 78.9301 17.0491C78.987 17.0491 79.0439 17.0301 79.1008 17.0301C79.4232 17.0301 79.5939 17.3146 79.5939 17.8835C79.5939 19.4197 78.5319 20.7282 77.0716 21.0316C76.3699 20.9748 75.9148 20.3869 75.9148 19.5714ZM76.7872 20.0265C76.7872 20.33 76.9009 20.6334 77.0337 20.6713C78.1336 20.4248 78.9301 19.2679 78.9301 17.8266C78.9301 17.5232 78.8922 17.3336 78.8164 17.2198C78.2854 17.3715 77.8492 17.7697 77.5457 18.168C77.1096 18.718 76.7872 19.5524 76.7872 20.0265Z" fill="white"/>
<path id="Vector_18" d="M82.2679 17.1628C81.9834 17.8266 81.0352 19.1351 80.9593 19.6851C81.3386 19.2679 81.9644 18.5093 82.1731 18.2817C82.6472 17.7886 83.5006 16.8783 84.0885 16.8783C84.3919 16.8783 84.6195 17.1439 84.7333 17.3714C84.7333 17.3904 84.6384 17.4094 84.4678 17.599C84.1454 18.0352 83.5195 19.2299 83.5195 19.9885C83.5195 20.292 83.5954 20.3489 83.7471 20.3489C83.8799 20.3489 84.0505 20.254 84.1264 20.254C84.1643 20.273 84.2023 20.3868 84.2023 20.4437C84.0126 20.6144 83.6333 20.823 83.4057 20.823C82.7041 20.823 82.5334 20.3868 82.5334 19.8558C82.5334 19.5523 82.6092 19.1731 83.0454 18.2059C83.0265 18.2059 82.6661 18.3765 82.3058 18.7369C81.7369 19.2868 81.3007 19.7989 80.8266 20.4437C80.5611 20.823 80.3524 21.1074 80.2197 21.1833C79.9542 21.0316 79.8594 20.7471 79.8025 20.4626C79.8025 20.0075 80.068 18.9834 80.4852 18.0352C80.9593 16.9542 81.3765 16.3284 81.4903 16.2715C81.8317 16.3853 82.1351 16.7646 82.2679 17.1628Z" fill="white"/>
</g>
</g>
<g id="Group_3">
<g id="Group_4">
<path id="Vector_19" d="M71.1168 67.7605V61.5401C68.4238 61.1229 65.7498 60.7057 63.0568 60.2885C62.8103 60.2506 62.5827 60.2126 62.3362 60.1747C62.1086 60.1368 61.881 60.3075 61.8621 60.573C61.6345 62.8866 61.4259 65.2761 61.2742 67.7605H71.1168Z" fill="#0E2C40"/>
<path id="Vector_20" d="M81.168 67.7606C81.0162 65.2762 80.8076 62.8867 80.5801 60.573C80.5611 60.3265 80.3335 60.1368 80.106 60.1748C79.8594 60.2127 79.6318 60.2506 79.3853 60.2886C76.6923 60.7058 73.9994 61.123 71.2874 61.5402C71.2495 61.5402 71.2116 61.5402 71.1737 61.5402C71.1547 61.5402 71.1547 61.5402 71.1357 61.5402V67.7606H81.168Z" fill="#0E2C40"/>
</g>
<path id="Vector_21" d="M55.1676 67.7604C55.2055 67.6277 55.2624 67.5139 55.3004 67.3811C55.9072 65.845 56.533 64.3658 56.8744 62.7538C56.1917 62.621 55.4141 62.6779 54.7124 62.8107C54.3142 62.8865 53.1953 63.0762 53.0625 63.5124C52.7022 64.783 52.0764 65.9967 51.8298 67.3053C51.7919 67.457 51.7919 67.6277 51.7729 67.7794H55.1676V67.7604Z" fill="#EAB38B"/>
<g id="Group_5">
<g id="_x37_">
<path id="Vector_22" d="M89.8537 22.6062C89.8537 22.6062 89.4175 20.5959 87.009 19.7046C87.1987 20.027 87.4642 20.5201 87.7676 21.108C88.2228 21.9993 88.2417 22.151 88.2417 22.3027C88.2417 23.1941 87.0659 23.8957 87.4452 24.0285C87.559 24.0664 88.8296 24.2371 88.8296 24.2371L89.8537 22.6062Z" fill="#D8A27D"/>
<path id="Vector_23" d="M90.4227 24.787L90.6502 23.1182C90.6882 23.0233 90.6882 22.9285 90.6502 22.8337L89.7968 20.6148C89.7589 20.52 89.702 20.4631 89.6262 20.4062C89.6262 20.4062 87.4832 19.3821 87.0849 19.3442C86.8763 19.3252 86.6108 19.4959 86.6298 19.7235C86.6487 19.97 86.9901 20.1218 87.1418 20.2545C87.3125 20.3873 87.5211 20.5011 87.7107 20.6148C88.0142 20.7855 88.3176 20.9752 88.621 21.1458C88.7348 21.2217 88.8107 21.3355 88.8296 21.4872L88.8676 22.4544C88.8676 22.6061 88.7917 22.7578 88.64 22.8337L88.3366 22.9854C88.2228 23.0423 88.09 23.0423 87.9762 22.9854C87.9383 22.9664 87.8814 22.9285 87.8435 22.8906L87.6159 22.663C87.559 22.6061 87.5211 22.5303 87.5021 22.4544C87.4832 22.3596 87.4642 22.2458 87.4452 22.151C87.3883 21.7906 87.2935 21.4493 87.2177 21.089C87.1608 20.8234 87.1418 20.5579 87.047 20.3114C86.9901 20.1787 86.9142 20.1028 86.7625 20.0459C86.6298 20.008 86.478 20.0269 86.3453 20.0649C86.2694 20.1028 86.1936 20.1407 86.1367 20.1976C86.0988 20.2545 86.1177 20.2924 86.1177 20.3493C86.0988 20.4252 86.1367 20.8234 86.1557 20.9372C86.2884 22.3027 86.1746 23.9905 86.1746 23.9905C86.1746 24.0474 86.1746 24.1043 86.1936 24.1422L86.6108 25.6594C86.6867 25.8301 86.8953 27.0628 87.0849 27.0438L89.8917 26.2283C90.0813 26.2473 90.3658 24.9198 90.4227 24.787Z" fill="#EAB38B"/>
<path id="Vector_24" d="M90.6691 23.1182C90.7071 23.0233 90.7071 22.9285 90.6691 22.8337L89.8157 20.6148C89.7778 20.52 89.7209 20.4631 89.645 20.4062C89.645 20.4062 87.5021 19.3821 87.1038 19.3442C86.8952 19.3252 86.6297 19.4959 86.6487 19.7235C86.6676 19.97 87.009 20.1218 87.1607 20.2545C87.3314 20.3873 87.54 20.5011 87.7296 20.6148C88.0331 20.7855 88.3365 20.9752 88.6399 21.1458C88.7537 21.2217 88.8296 21.3355 88.8485 21.4872L88.8865 22.4544C88.8865 22.6061 88.8106 22.7578 88.6589 22.8337L88.3555 22.9854C88.2417 23.0423 88.1089 23.0423 87.9951 22.9854L87.521 26.1714L89.9295 26.2663C90.0812 26.2473 90.3847 24.9198 90.4416 24.787L90.6691 23.1182Z" fill="#EAB38B"/>
<path id="Vector_25" d="M85.0368 19.2495L84.4299 20.5391C85.473 20.8994 86.516 21.2787 87.578 21.639C87.8815 21.146 88.147 20.6719 88.3556 20.1788C86.4402 19.6478 85.0368 19.2495 85.0368 19.2495Z" fill="white"/>
<path id="Vector_26" d="M87.8435 22.8907L87.6159 22.6632C87.559 22.6063 87.5211 22.5304 87.5021 22.4546C87.4832 22.3597 87.4642 22.246 87.4452 22.1511C87.3883 21.7908 87.2935 21.4494 87.2177 21.0891C87.1608 20.8236 87.1418 20.5581 87.047 20.3116C86.9901 20.1788 86.9142 20.103 86.7625 20.0461C86.6298 20.0081 86.478 20.0271 86.3453 20.065C86.2694 20.103 86.1936 20.1409 86.1367 20.1978C86.0988 20.2547 86.1177 20.2926 86.1177 20.3495C86.0988 20.4254 86.1367 20.8236 86.1557 20.9374C86.2884 22.3028 86.1746 23.9907 86.1746 23.9907C86.1746 24.0476 86.1746 24.1045 86.1936 24.1424L86.7435 25.5268C86.8004 25.6975 86.8763 26.1147 87.047 26.0957L87.4832 26.1147L87.9573 22.9287C87.9193 22.9666 87.8814 22.9287 87.8435 22.8907Z" fill="#EAB38B"/>
<path id="Vector_27" d="M86.8574 20.7286C86.8005 20.7665 86.7057 20.8044 86.5919 20.8234C86.4402 20.8423 86.3264 20.8234 86.2695 20.8234C86.2316 20.6337 86.1937 20.4251 86.1558 20.2355C86.2127 20.1786 86.2885 20.1217 86.3644 20.1027C86.4971 20.0458 86.6488 20.0458 86.8005 20.1027L86.8574 20.7286Z" fill="#F2C4A5"/>
<path id="Vector_28" d="M86.5918 26.57L87.009 28.3147L90.7261 27.8785L90.1571 26.2476L86.5918 26.57Z" fill="#E6E7E8"/>
</g>
<g id="Group_6">
<g id="Group_7">
<path id="Vector_29" d="M76.3509 20.4441C76.332 20.2165 76.1992 19.8183 75.8958 20.0458C75.763 20.1407 75.8389 20.4062 75.7061 20.482C75.4027 20.6906 75.3648 20.2355 75.3458 20.0269C75.251 19.2683 75.5923 18.5097 75.4786 17.7701C75.3268 16.727 74.0372 15.4185 73.108 15.0771C72.1787 14.7358 70.965 14.7547 70.0357 15.115C69.0875 14.8116 67.8738 14.8116 66.9635 15.1909C66.0532 15.5702 65.3705 16.8977 65.2567 17.9408C65.1808 18.6993 65.5411 19.42 65.4653 20.1975C65.4463 20.4062 65.4274 20.8613 65.1239 20.6527C64.9912 20.5768 65.0481 20.3113 64.9153 20.2165C64.3843 19.8372 64.5171 20.9372 64.574 21.1268C64.8015 21.8854 65.086 22.8146 65.8066 23.2888C66.0153 23.4215 66.4514 23.4974 66.5842 23.6301C66.9066 23.9525 67.4186 25.8679 67.3997 26.3231L67.3428 29.4143L71.0219 32.6762L72.1598 31.3487L74.0941 29.1867C74.0562 27.423 73.2976 25.2421 74.682 23.8008C75.782 22.6819 76.4647 22.1319 76.3509 20.4441Z" fill="#F9CFB3"/>
<path id="Vector_30" d="M64.593 19.5337C64.6879 19.932 64.7827 20.3302 64.8396 20.7854C65.0482 22.1129 65.7499 22.2456 66.6222 23.0232C67.267 23.5921 67.8739 24.2179 68.348 24.9386C69.0497 25.9816 68.8221 26.4747 68.4618 27.6316C69.3152 27.404 70.1686 27.2523 70.9082 26.7782C71.7427 26.2661 72.3116 25.4127 73.146 24.9007C74.3029 24.0852 75.2132 23.7059 75.7063 22.3405C76.2562 20.8612 76.8062 19.5716 76.9958 17.9597C76.9958 16.6132 77.432 14.9633 76.5976 13.7685C75.82 12.6496 74.9287 11.6445 74.1891 10.4497C72.8805 10.9617 71.4772 11.0945 70.0928 11.3031C68.7084 11.5117 67.305 11.7962 66.1292 12.5548C63.55 14.1857 63.9862 16.9545 64.593 19.5337Z" fill="#594A42"/>
</g>
<path id="Vector_31" d="M74.0375 28.2764L71.7238 28.7505C70.9652 28.9022 70.1877 28.9212 69.4101 28.7694L67.2671 28.3901L66.5654 30.5521L68.0636 35.2363L73.4495 35.1415L74.796 30.4004L74.0375 28.2764Z" fill="#E4F4FF"/>
</g>
<path id="Vector_32" d="M66.9446 30.116C66.9446 30.116 66.9066 30.1349 66.8308 30.1539C66.5653 30.2298 65.8825 30.4573 64.9912 30.7418C62.1276 31.6521 59.8329 32.0883 58.2967 34.8381C56.9503 37.2656 56.2296 42.8791 56.2296 42.8791L51.7729 64.4228L55.9072 65.8262L61.6724 48.5495L60.3259 67.7416H70.5099V30.0591L66.9446 30.116Z" fill="#798C91"/>
<path id="Vector_33" d="M92.0726 32.7899C91.7123 30.4193 91.1812 28.3522 90.5933 26.6074L86.3643 27.4229L86.7625 37.8534C85.9281 36.8483 85.0747 35.8431 84.2402 34.838C83.6903 34.1743 83.1593 33.3778 82.5145 32.7899C81.718 32.0692 80.656 31.7658 79.6698 31.4813C78.5699 31.1779 77.4889 30.8555 76.3889 30.552C75.4976 30.3055 74.7959 30.0969 74.5304 30.021C74.4545 30.0021 74.4166 29.9831 74.4166 29.9831L70.5479 30.059V67.7415H82.6851L80.068 42.6704C80.106 42.6704 80.1439 42.6704 80.1818 42.6704L87.3125 48.1321C88.0711 48.72 89.0952 48.8528 89.9675 48.4925C90.8399 48.1322 91.4657 47.3546 91.5985 46.4253L92.357 41.6273C92.5467 39.2568 92.5846 36.2224 92.0726 32.7899Z" fill="#9AA4AF"/>
</g>
</g>
<g id="Group_8">
<g id="Group_9">
<path id="Vector_34" d="M92.9639 68.5566C92.7364 68.6135 92.4898 68.6704 92.2433 68.7273C90.783 68.9928 89.2848 69.0497 87.7866 68.9738C86.2126 68.879 84.6385 68.6325 83.0834 68.3101C82.6472 68.5945 82.1162 68.8031 81.4714 69.0497C83.5196 70.5668 84.2971 70.5858 87.7487 70.8703C87.7677 70.8703 87.7677 70.8703 87.7866 70.8703C91.2002 70.5858 92.4898 70.2634 94.1018 69.0497C93.6656 68.86 93.2863 68.7083 92.9639 68.5566Z" fill="#DEB09D"/>
<path id="Vector_35" d="M81.4525 69.0308C77.8492 70.3772 77.2044 70.6807 76.0097 72.4823C75.9148 72.634 75.82 72.7857 75.7631 72.9564C75.5735 73.4495 74.3977 79.8974 74.0942 81.7939H87.4642V70.8514C84.2402 70.5669 83.4437 70.51 81.4525 69.0308Z" fill="#5D388E"/>
<path id="Vector_36" d="M99.7721 72.9564C99.7152 72.7857 99.6204 72.634 99.5255 72.4823C98.3118 70.6807 97.686 70.3772 94.0827 69.0308C92.4708 70.2635 91.1812 70.5669 87.7676 70.8514C87.7486 70.8514 87.7486 70.8514 87.7296 70.8514C87.6348 70.8514 87.5589 70.8324 87.4641 70.8324V81.7749H87.6917H87.7676H101.441C101.156 79.8974 99.9617 73.4495 99.7721 72.9564Z" fill="#653D9B"/>
<path id="Vector_37" d="M83.1213 50.3506C82.9316 49.9145 82.8178 49.4403 82.742 48.9473C82.3058 49.1559 81.9075 49.4593 81.5851 49.8007C79.2715 52.1523 79.7077 55.3573 80.1249 58.3916C80.5421 61.5397 81.0352 64.5171 80.599 67.6842C81.4145 67.8928 82.2299 68.1014 83.0644 68.2911C84.6195 68.6324 86.1935 68.879 87.7676 68.9548C89.2658 69.0307 90.764 68.9738 92.2242 68.7083C92.4708 68.6704 92.7173 68.6135 92.9449 68.5376C93.7604 68.329 94.5569 68.0256 95.4103 67.8739C95.4103 65.9016 95.4292 63.9292 95.4482 61.9569C95.4482 61.8431 95.4482 61.7104 95.4482 61.5966C89.8158 60.7053 84.885 55.6417 83.1213 50.3506Z" fill="#414042"/>
<path id="Vector_38" d="M95.3725 54.1437C95.2018 50.4836 92.1485 47.3165 88.4315 47.1458C87.104 47.0889 85.5489 47.4493 84.9799 48.663C84.2213 48.4544 83.4438 48.6061 82.7231 48.9474C82.799 49.4405 82.9318 49.9336 83.1024 50.3508C84.8661 55.623 89.778 60.6865 95.4483 61.5968C95.4863 59.1124 95.4863 56.6281 95.3725 54.1437Z" fill="#454446"/>
</g>
<g id="Group_10">
<g id="Group_11">
<path id="Vector_39" d="M34.8188 56.9886C34.7999 56.723 34.6671 56.2869 34.3257 56.5524C34.174 56.6662 34.2499 56.9506 34.0982 57.0455C33.7568 57.273 33.7189 56.761 33.6999 56.5334C33.6051 55.68 34.0034 54.8456 33.8896 54.0111C33.7379 52.8353 32.3345 51.3561 31.2914 50.9578C30.2673 50.5596 28.9019 50.5596 27.8588 50.9389C26.7968 50.5786 25.4504 50.5596 24.4263 50.9578C23.4022 51.3561 22.6057 52.8353 22.4729 54.0111C22.3781 54.8456 22.7574 55.68 22.6626 56.5334C22.6436 56.761 22.6057 57.273 22.2643 57.0455C22.1126 56.9506 22.1885 56.6662 22.0367 56.5524C21.4488 56.1162 21.5816 57.3489 21.6385 57.5765C21.885 58.4299 22.1885 59.4729 22.966 60.0039C23.1936 60.1556 23.6867 60.2505 23.8194 60.4022C24.1608 60.7815 24.7107 62.9055 24.6918 63.4365L24.559 66.888L28.6174 70.6051L29.926 69.1258L32.1259 66.7553C32.1259 64.783 31.3104 62.3366 32.8844 60.7435C34.1361 59.4729 34.9137 58.885 34.8188 56.9886Z" fill="#F9CFB3"/>
<path id="Vector_40" d="M21.6953 55.7558C21.7901 56.192 21.8849 56.6661 21.9608 57.1592C22.1504 58.5815 23.3831 59.416 23.99 60.6866C24.2745 61.2745 24.9193 61.9382 25.052 62.5641C25.9623 62.2417 25.4313 62.071 26.1709 62.7158C26.6261 63.133 28.2191 63.0761 28.788 62.9054C29.1483 62.7916 29.3001 62.3744 29.6983 62.3175C30.1155 62.2606 30.5138 62.602 30.95 62.583C30.8552 62.583 31.8034 62.3934 31.6327 62.4692C32.8275 61.9572 33.7946 59.8521 34.2119 58.7332C34.4963 57.9747 34.9894 57.3678 35.2739 56.6092C35.5584 55.8696 35.5204 54.9783 35.6342 54.2007C36.1083 50.6544 35.729 47.1459 31.1586 46.3873C29.0725 46.046 26.645 45.9322 24.6538 46.7287C22.9659 47.3925 21.9229 49.1182 21.335 50.7681C20.7281 52.3991 21.3729 54.3145 21.6953 55.7558Z" fill="#3D3B36"/>
</g>
<path id="Vector_41" d="M32.0688 65.7123L29.4707 66.1864C28.6173 66.3382 27.7449 66.3382 26.8915 66.1675L24.502 65.6934L23.6865 68.1018L25.2795 73.374H31.3103L32.9033 68.1018L32.0688 65.7123Z" fill="#E4F4FF"/>
</g>
<g id="Group_12">
<g id="Group_13">
<path id="Vector_42" d="M64.6877 56.9889C64.6687 56.7423 64.536 56.3062 64.2136 56.5527C64.0619 56.6665 64.1377 56.932 64.005 57.0268C63.6636 57.2544 63.6257 56.7424 63.6067 56.5337C63.5309 55.6993 63.8912 54.8838 63.7964 54.0494C63.6636 52.8926 62.2602 51.4513 61.2551 51.053C60.25 50.6737 58.9225 50.6737 57.8794 51.034C56.8554 50.6737 55.5089 50.6737 54.5038 51.053C53.4986 51.4513 52.7211 52.8926 52.5883 54.0494C52.4935 54.8838 52.8728 55.6803 52.778 56.5337C52.759 56.7613 52.7211 57.2544 52.3797 57.0268C52.247 56.932 52.3228 56.6665 52.1711 56.5527C51.5832 56.1165 51.7349 57.3492 51.7918 57.5578C52.0194 58.4112 52.3418 59.4164 53.1004 59.9474C53.328 60.0991 53.8021 60.1939 53.9348 60.3266C54.2762 60.687 54.8072 62.792 54.7882 63.3041L54.6555 66.6798L58.638 70.321L59.9086 68.8796L62.0706 66.547C62.0706 64.6126 61.2741 62.2231 62.8292 60.649C64.0429 59.4353 64.7825 58.8474 64.6877 56.9889Z" fill="#F9CFB3"/>
<path id="Vector_43" d="M51.8108 55.7749C51.9056 56.2111 52.0005 56.6663 52.0574 57.1404C52.247 58.5248 53.4607 59.3592 54.0486 60.5919C54.3331 61.1798 54.9589 61.8246 55.0917 62.4504C55.983 62.147 55.452 61.9574 56.1916 62.6022C56.6468 63.0004 58.2019 62.9625 58.7708 62.7918C59.1311 62.678 59.2639 62.2797 59.6621 62.2229C60.0604 62.166 60.4586 62.5073 60.8759 62.4884C60.781 62.4884 61.7103 62.3177 61.5396 62.3746C62.7154 61.8625 63.6636 59.8144 64.0619 58.7144C64.3274 57.9748 64.8205 57.3679 65.105 56.6283C65.3705 55.9077 65.3515 55.0163 65.4653 54.2578C65.9394 50.7683 65.5411 47.3357 61.0845 46.5961C59.0363 46.2547 56.6468 46.1409 54.6934 46.9185C53.0435 47.5822 52.0005 49.2701 51.4315 50.8821C50.8816 52.4941 51.5074 54.3715 51.8108 55.7749Z" fill="#624026"/>
</g>
<g id="Group_14">
<path id="Vector_44" d="M62.0137 65.542L59.4725 66.1868C58.638 66.3954 57.7846 66.3954 56.9502 66.1678L54.5796 65.542L53.7642 68.747L55.3193 75.7449H61.2362L62.7913 68.747L62.0137 65.542Z" fill="#E4F4FF"/>
<path id="Vector_45" d="M66.717 70.0933C66.0343 69.6571 65.2946 69.2778 64.5361 68.9744C63.5689 68.5762 62.7913 68.2727 62.5068 68.159C62.431 68.121 62.3741 68.1021 62.3741 68.1021H54.2004C54.2004 68.1021 54.1625 68.121 54.0866 68.159C53.8021 68.2727 53.0246 68.5951 52.0574 68.9744C49.4403 70.0554 45.3819 71.7243 45.2681 71.8191C45.1543 71.9139 43.7699 75.7637 42.9355 78.0964C42.2148 80.1066 42.651 90.1388 43.8268 91.7129C46.8042 95.7713 71.7236 91.7508 73.5063 89.3044C75.6493 86.3649 74.2269 80.1635 72.8425 77.1861C71.496 74.2845 69.391 71.7622 66.717 70.0933Z" fill="#455256"/>
</g>
</g>
<g id="Group_15">
<g id="Group_16">
<path id="Vector_46" d="M85.6056 67.5893C85.5866 67.2858 85.4159 66.7548 85.0177 67.0583C84.828 67.191 84.9229 67.5324 84.7522 67.6461C84.335 67.9117 84.297 67.3048 84.2781 67.0393C84.1643 66.0152 84.6384 65.0101 84.5056 64.005C84.3349 62.6016 82.6281 60.8189 81.3954 60.3448C80.1628 59.8707 78.5318 59.8707 77.2612 60.3258C75.9906 59.8897 74.3596 59.8707 73.1269 60.3448C71.8942 60.8189 70.946 62.5826 70.7753 64.005C70.6426 65.0101 71.1167 66.0152 71.0029 67.0393C70.9839 67.3048 70.927 67.9306 70.5288 67.6461C70.3581 67.5324 70.4529 67.191 70.2633 67.0583C69.5426 66.5272 69.7323 68.0254 69.7892 68.2909C70.0736 69.334 70.4529 70.5667 71.3822 71.2115C71.6477 71.4011 72.2545 71.4959 72.4063 71.6856C72.8235 72.1218 73.4683 74.701 73.4493 75.3268L73.2976 79.48L78.1715 83.9556L79.7266 82.1919L82.3816 79.3473C82.3816 76.9767 81.4144 74.0372 83.3109 72.1218C84.8091 70.5856 85.7194 69.884 85.6056 67.5893Z" fill="#F9CFB3"/>
<path id="Vector_47" d="M69.846 66.1102C69.9598 66.6412 70.0736 67.1912 70.1494 67.798C70.377 69.5048 71.8562 70.51 72.5959 72.0271C72.9372 72.7478 73.7148 73.5443 73.8665 74.2839C74.9664 73.9046 74.3216 73.677 75.213 74.4735C75.7629 74.9666 77.6784 74.9097 78.3611 74.7011C78.7973 74.5684 78.9679 74.0753 79.461 73.9994C79.9541 73.9236 80.4472 74.3408 80.9592 74.3218C80.8454 74.3218 81.9833 74.1132 81.7747 74.1891C83.216 73.5632 84.3728 71.0599 84.8659 69.6945C85.2073 68.7842 85.8141 68.0446 86.1365 67.1532C86.4779 66.2619 86.44 65.1809 86.5727 64.2517C87.1606 59.9847 86.6675 55.7745 81.2058 54.8642C78.7024 54.447 75.7819 54.3143 73.3924 55.2625C71.3632 56.059 70.1115 58.1451 69.4098 60.1174C68.6892 62.0897 69.4667 64.3844 69.846 66.1102Z" fill="#624026"/>
<path id="Vector_48" d="M82.3245 78.0767L79.1954 78.6456C78.1713 78.8352 77.1283 78.8352 76.1042 78.6266L73.2405 78.0767L72.2544 80.9782L74.1508 87.2934H81.3953L83.3107 80.9593L82.3245 78.0767Z" fill="#E4F4FF"/>
</g>
<g id="Group_17">
<path id="Vector_49" d="M93.6275 99.9809C93.4379 97.8189 93.7792 95.7328 94.0637 93.6088C94.443 90.8779 93.7224 87.635 93.0776 84.9799C92.831 83.9938 92.5086 82.9697 91.769 82.268C91.4656 81.9836 91.0484 81.718 90.5742 81.5094C89.3226 80.9215 87.6537 80.5422 86.5538 80.2198C84.4487 79.594 82.154 79.4233 79.9731 79.4233C77.9439 79.4233 75.8957 79.4233 73.8665 79.4233C73.8665 79.4233 73.8286 79.4423 73.7527 79.4613C73.4682 79.5371 72.7097 79.7837 71.7425 80.0681C69.1633 80.8457 65.1428 82.0784 65.029 82.1353C64.9153 82.2111 63.5498 85.0179 62.7154 86.7247C62.2223 87.7488 61.6534 95.9604 61.7671 99.9998H93.6275V99.9809Z" fill="#3D5872"/>
</g>
</g>
<g id="Group_18">
<path id="Vector_50" d="M20.5384 99.8675C20.5953 99.9244 20.6333 99.9434 20.6712 99.9813H23.2693C24.2745 98.8434 25.1279 96.7952 27.0053 97.0797C27.9536 97.2125 31.3293 99.7916 32.2775 99.6589C33.586 99.4692 32.9412 85.3217 34.9515 84.8097C38.0427 84.0132 40.9822 101.574 42.8028 99.7347C43.9786 98.54 44.6613 77.9255 43.9217 76.4273C43.0683 74.6826 41.646 71.781 41.5322 71.7052C41.4184 71.6293 37.2652 70.3777 34.6101 69.5622C33.624 69.2588 32.8464 69.0312 32.543 68.9364C32.4671 68.9174 32.4102 68.8984 32.4102 68.8984H24.0848C24.0848 68.8984 24.0469 68.9174 23.9521 68.9364C23.6676 69.0312 22.8711 69.2588 21.8849 69.5622C21.7332 69.6191 21.4487 69.5432 21.1074 69.4105C18.2248 72.2172 15.5887 77.5652 14.6594 79.8789C14.4129 80.4857 14.2043 81.0737 14.0146 81.6995C14.0905 81.8322 14.1664 81.965 14.2422 82.0598C15.4749 84.5631 19.4764 98.8055 20.5384 99.8675Z" fill="#455256"/>
</g>
<g id="Group_19">
<g id="Group_20">
<path id="Vector_51" d="M25.6586 84.9612C23.4018 83.8234 24.0277 79.4236 24.3121 77.2427C21.3916 77.6599 18.4142 77.7737 15.4747 77.603C15.6074 79.4236 15.6074 81.8131 14.8678 83.5199C14.3368 84.7147 13.1989 85.0561 12.0042 85.5302C14.4316 87.3318 15.3609 87.3508 19.4572 87.6921C19.4762 87.6921 19.4951 87.6921 19.5141 87.6921C23.5725 87.3508 25.1086 86.9715 27.0241 85.5112C26.531 85.3785 26.0948 85.1888 25.6586 84.9612Z" fill="#E2BBA1"/>
<path id="Vector_52" d="M16.7453 66.6981C15.6833 65.2188 14.6213 63.3603 14.0903 61.4639C13.3507 61.7104 12.6679 62.1466 12.118 62.7155C9.78533 65.0861 10.2784 68.6135 10.5629 71.7237C10.8853 75.2132 11.7197 78.6457 13.0283 81.8887C15.323 80.7698 17.9021 80.3146 20.4434 80.4663C20.8796 80.4853 21.3158 80.5232 21.7519 80.5991C23.307 80.8267 24.5587 81.2818 25.7724 82.2869C27.062 80.3525 27.7068 78.8164 28.162 76.4648C28.3326 75.5924 28.4464 74.6442 28.5412 73.677C24.0277 72.6909 19.8176 70.3772 16.7453 66.6981Z" fill="#CCAF54"/>
<path id="Vector_53" d="M27.8775 65.5226C26.9293 62.2796 23.6105 59.7194 20.2728 59.5488C18.6987 59.4729 16.8402 59.9091 16.1764 61.3504C15.4937 61.1607 14.7731 61.2176 14.0903 61.4452C14.6213 63.3417 15.6833 65.2002 16.7454 66.6794C19.7986 70.3585 24.0277 72.6722 28.5413 73.6204C28.7689 70.9275 28.5982 67.969 27.8775 65.5226Z" fill="#D0B256"/>
</g>
<g id="Group_21">
<path id="Vector_54" d="M35.5772 99.981C35.1031 97.1553 33.9083 90.7453 33.7187 90.2143C33.6428 90.0246 33.548 89.835 33.4342 89.6453C31.9929 87.5024 31.2343 87.161 26.9673 85.549C24.7295 87.2558 21.6004 87.8058 18.8315 87.7299C16.1007 87.673 14.7352 86.9713 12.2698 85.8524C11.7388 85.6059 10.6199 85.3594 10.6199 85.3594C10.6199 85.3594 5.74602 88.3747 4.55126 89.8729C2.80652 92.0538 1.49797 94.633 0.872144 97.3639C0.701463 98.1414 0.416996 99.1466 0.435961 99.981H35.5772Z" fill="#14BAC6"/>
</g>
</g>
<g id="Group_22">
<g id="Group_23">
<path id="Vector_55" d="M46.2351 68.7273C46.2162 68.4429 46.0644 67.9498 45.6852 68.2342C45.5145 68.367 45.5903 68.6704 45.4386 68.7842C45.0593 69.0308 45.0214 68.4618 44.9835 68.2153C44.8886 67.2481 45.3248 66.3188 45.211 65.3706C45.0593 64.0431 43.4663 62.3932 42.3095 61.957C41.1526 61.5208 39.6355 61.5208 38.4597 61.938C37.2839 61.5208 35.7477 61.5208 34.6099 61.957C33.453 62.4121 32.5807 64.0621 32.41 65.3706C32.2962 66.3188 32.7324 67.2481 32.6376 68.2153C32.6186 68.4618 32.5807 69.0497 32.1824 68.7842C32.0307 68.6704 32.1066 68.367 31.9359 68.2342C31.2721 67.7412 31.4238 69.1446 31.4997 69.3721C31.7652 70.3393 32.1255 71.4961 32.9979 72.103C33.2444 72.2737 33.8134 72.3685 33.9651 72.5392C34.3444 72.9564 34.9512 75.3649 34.9323 75.9528L34.7806 79.8216L39.332 83.9938L40.7733 82.3438L43.2577 79.6888C43.2577 77.47 42.3474 74.7391 44.1111 72.9374C45.4955 71.5151 46.3489 70.8514 46.2351 68.7273Z" fill="#F9CFB3"/>
<path id="Vector_56" d="M31.5187 67.3242C31.6325 67.8173 31.7273 68.3294 31.8032 68.8983C32.0118 70.4913 33.3962 71.4395 34.0789 72.8429C34.4013 73.5067 35.122 74.2463 35.2737 74.9669C36.2978 74.6066 35.6909 74.398 36.5254 75.1376C37.0374 75.5928 38.8201 75.5548 39.4649 75.3462C39.8631 75.2135 40.0338 74.7583 40.4889 74.7014C40.9441 74.6445 41.3992 75.0238 41.8923 75.0049C41.7785 75.0049 42.8405 74.7963 42.6509 74.8911C43.9974 74.3032 45.0784 71.9705 45.5335 70.6999C45.8369 69.8465 46.4059 69.1638 46.7283 68.3294C47.0317 67.4949 47.0127 66.4898 47.1265 65.6174C47.6575 61.6349 47.2213 57.6903 42.1009 56.8558C39.7493 56.4576 37.0374 56.3438 34.7996 57.2351C32.9031 57.9937 31.7273 59.9281 31.0825 61.7676C30.4377 63.5693 31.1584 65.7123 31.5187 67.3242Z" fill="#624026"/>
</g>
<g id="Group_24">
<path id="Vector_57" d="M43.1629 78.5131L40.2424 79.0441C39.2942 79.2148 38.308 79.2148 37.3408 79.0251L34.6668 78.4941L33.7375 81.2061L35.5202 87.123H42.2906L44.0732 81.2061L43.1629 78.5131Z" fill="#E4F4FF"/>
<path id="Vector_58" d="M58.2777 99.981C57.9174 95.5433 56.9881 90.1195 56.495 89.0954C55.5468 87.1231 53.9538 83.8801 53.821 83.7853C53.6883 83.7095 49.042 82.2871 46.0456 81.3768C44.9457 81.0355 44.0543 80.7889 43.7319 80.6751C43.6371 80.6562 43.5802 80.6372 43.5802 80.6372H34.2307C34.2307 80.6372 34.1738 80.6562 34.0979 80.6751C33.7755 80.77 32.8842 81.0355 31.7843 81.3768C28.8068 82.2871 24.1416 83.6905 24.0278 83.7853C23.895 83.8801 22.321 87.1231 21.3538 89.0764C20.709 90.4039 19.9883 96.6622 20.3297 99.9621H58.2777V99.981Z" fill="#3D5872"/>
</g>
</g>
<g id="Group_25">
<path id="Vector_59" d="M68.9929 73.6584C68.9739 73.336 68.7843 72.805 68.3481 73.1084C68.1395 73.2412 68.2533 73.6015 68.0636 73.7153C67.6085 73.9997 67.5705 73.3739 67.5326 73.0895C67.4188 72.0274 67.9309 71.0034 67.7981 69.9793C67.6085 68.519 65.7499 66.7174 64.3845 66.2243C63.038 65.7312 61.2554 65.7502 59.8709 66.1864C58.4865 65.7312 56.7039 65.7312 55.3574 66.2243C53.9919 66.7174 52.9679 68.538 52.7782 69.9793C52.6455 71.0223 53.1575 72.0464 53.0437 73.0895C53.0058 73.3739 52.9679 73.9997 52.5127 73.7153C52.3231 73.6015 52.4179 73.2601 52.2282 73.1084C51.4507 72.5584 51.6403 74.0946 51.7162 74.3601C52.0386 75.4221 52.4369 76.7117 53.4609 77.3754C53.7454 77.5651 54.4092 77.6789 54.5798 77.8495C55.035 78.3047 55.7367 80.9408 55.7177 81.6045L55.547 85.8715L60.8761 90.461L62.5829 88.6593L65.4844 85.7388C65.4844 83.2924 64.4224 80.296 66.4896 78.3047C68.1015 76.7496 69.1256 76.01 68.9929 73.6584Z" fill="#F9CFB3"/>
<path id="Vector_60" d="M51.735 72.1412C51.8678 72.6912 51.9816 73.2601 52.0764 73.867C52.3229 75.6117 53.9539 76.6548 54.7504 78.2099C55.1297 78.9495 55.9641 79.765 56.1348 80.5425C57.3296 80.1443 56.6279 79.9167 57.5951 80.7322C58.2019 81.2442 60.288 81.1873 61.0466 80.9597C61.5207 80.808 61.7104 80.3149 62.2414 80.2391C62.7724 80.1632 63.3223 80.5804 63.8723 80.5615C63.7585 80.5615 64.9912 80.3339 64.7637 80.4287C66.3377 79.7839 67.6083 77.2048 68.1393 75.8204C68.4997 74.8911 69.1634 74.1325 69.5237 73.2033C69.8841 72.293 69.8651 71.174 69.9978 70.2258C70.6237 65.845 70.1116 61.5211 64.1189 60.5729C61.369 60.1367 58.183 60.0039 55.5659 60.9901C53.347 61.8245 51.9626 63.9486 51.204 65.9778C50.4644 68.007 51.3178 70.3586 51.735 72.1412Z" fill="#3D3B36"/>
<g id="Group_26">
<path id="Vector_61" d="M65.3896 84.4302L61.976 85.0181C60.8571 85.2077 59.7003 85.2077 58.5814 84.9991L55.4333 84.4302L54.3523 87.4076L56.4384 93.9124H64.3656L66.4517 87.4076L65.3896 84.4302Z" fill="#E4F4FF"/>
<path id="Vector_62" d="M82.0594 99.981C81.7939 98.3122 81.3766 96.795 81.0163 96.0743C79.8974 93.9124 78.0389 90.3281 77.8872 90.2333C77.7355 90.1385 72.2926 88.5834 68.7842 87.5972C67.4946 87.2369 66.4516 86.9335 66.0723 86.8386C65.9585 86.8007 65.9016 86.7817 65.9016 86.7817H54.9401C54.9401 86.7817 54.8832 86.8007 54.7694 86.8386C54.3901 86.9524 53.3471 87.2369 52.0575 87.5972C48.568 88.5834 43.1062 90.1385 42.9545 90.2333C42.8028 90.3281 40.9443 93.8934 39.8254 96.0554C39.503 96.7002 39.0289 98.1984 38.6306 99.9621H82.0594V99.981Z" fill="#20B7EA"/>
</g>
</g>
<g id="Group_27">
<g id="Group_28">
<g id="Group_29">
<path id="Vector_63" d="M104.551 84.9044C102.275 83.7665 102.901 79.3288 103.186 77.1289C100.227 77.5461 97.2497 77.6789 94.2723 77.5082C94.405 79.3288 94.405 81.7563 93.6464 83.4631C93.1154 84.6768 91.9776 85.0182 90.7449 85.4923C93.1913 87.3129 94.1395 87.3318 98.2548 87.6732C98.2738 87.6732 98.2927 87.6732 98.3117 87.6732C102.408 87.3318 103.944 86.9525 105.879 85.4923C105.423 85.3026 104.987 85.113 104.551 84.9044Z" fill="#ECCAB8"/>
<path id="Vector_64" d="M115.475 98.7484C114.526 94.1969 114.716 89.1903 110.752 86.8007C110.146 86.4404 109.444 86.118 108.609 85.8904C107.737 85.6439 106.789 85.8335 105.935 85.5111L105.879 85.4922C103.982 86.9335 102.446 87.3128 98.5014 87.6541C98.4255 87.6541 98.3686 87.6731 98.3117 87.6731C98.2928 87.6731 98.2738 87.6731 98.2549 87.6731C94.1206 87.3317 93.1724 87.3128 90.7449 85.4922C86.44 87.1231 85.6624 87.4645 84.2211 89.6265C84.1073 89.7971 84.0125 89.9868 83.9367 90.1954C83.747 90.7264 82.5522 97.1174 82.0781 99.9811H98.5204H115.399C115.645 99.6397 115.569 99.1656 115.475 98.7484Z" fill="#F4384F"/>
<g id="Group_30">
<path id="Vector_65" d="M106.068 73.7152C106.296 73.279 106.505 72.8239 106.637 72.3308C107.225 70.0551 107.453 67.5897 106.77 65.3139C105.803 62.0331 102.465 59.4539 99.1084 59.3022C97.5154 59.2263 95.6568 59.6625 94.9931 61.1228C94.2724 60.9142 93.4949 60.99 92.7932 61.2555C93.2294 64.0243 94.8793 66.6794 96.3585 69.3344C98.786 72.4067 102.389 73.5445 106.068 73.7152Z" fill="#78563B"/>
<path id="Vector_66" d="M96.3205 69.3343C94.8413 66.6792 93.1914 64.0052 92.7552 61.2554C92.0535 61.5019 91.4087 61.9381 90.8777 62.4691C89.1898 64.1949 88.4692 66.6982 88.4882 69.0688C88.5071 70.2825 88.6968 71.5152 89.114 72.6531C89.5881 73.9616 90.5553 75.0047 91.5035 75.9718C92.0345 76.5028 92.5845 77.0149 93.1345 77.5269C93.5327 77.8873 93.912 78.2476 94.3103 78.6269C94.5947 78.8924 95.0309 79.1579 95.1637 79.5372C95.4671 80.4095 94.8413 81.2819 94.8413 82.1163C94.2534 84.411 94.1965 86.8195 94.4051 89.1901C94.6137 91.5607 95.1068 93.8933 95.5999 96.207C97.0601 96.2828 98.5204 96.3587 99.9807 96.4156C100.151 93.3054 100.588 90.1763 100.815 87.123C100.815 87.0851 100.872 87.0851 100.872 87.123C100.853 89.3418 100.853 95.5432 100.796 96.4346L101.612 96.4915C102.143 93.6088 101.934 90.6883 102.275 87.7867C102.408 86.592 102.389 85.3972 102.332 84.1835C102.275 82.9887 101.915 81.8888 101.801 80.694C101.763 80.2009 101.763 79.7079 101.896 79.2337C102.048 78.7217 102.313 78.3993 102.693 78.039C103.072 77.6597 103.413 77.2235 103.736 76.7873C104.513 75.7632 105.405 74.815 106.03 73.6771C102.389 73.5444 98.7859 72.4065 96.3205 69.3343Z" fill="#745238"/>
</g>
</g>
<path id="Vector_67" d="M102.825 79.5564C102.825 80.2391 100.891 80.7891 98.5203 80.7891C96.1497 80.7891 94.2153 80.2391 94.2153 79.5564C94.2153 78.8737 96.1497 78.3237 98.5203 78.3237C100.91 78.3237 102.825 78.8737 102.825 79.5564Z" fill="#877960"/>
</g>
</g>
</g>
</g>
</svg>
